<?xml version="1.0" standalone="no"?>
<!DOCTYPE svg PUBLIC "-//W3C//DTD SVG 1.1//EN" "http://www.w3.org/Graphics/SVG/1.1/DTD/svg11.dtd" >
<svg xmlns="http://www.w3.org/2000/svg" xmlns:xlink="http://www.w3.org/1999/xlink" version="1.1">
<metadata></metadata>
<defs>
<font id="enter_sansmanbold_italic" horiz-adv-x="1420" >
<font-face units-per-em="2048" ascent="1638" descent="-410" />
<missing-glyph horiz-adv-x="1024" />
<glyph horiz-adv-x="0" />
<glyph horiz-adv-x="682" />
<glyph unicode=" "  horiz-adv-x="1024" />
<glyph unicode="&#x09;" horiz-adv-x="1024" />
<glyph unicode="&#xa0;" horiz-adv-x="1024" />
<glyph unicode="!" horiz-adv-x="630" d="M-78 0l100 378h488l-102 -378h-486zM94 462l50 370l162 602h486l-154 -576l-150 -396h-394z" />
<glyph unicode="&#x22;" horiz-adv-x="682" d="M4 828l38 230l102 376h228l-96 -358l-86 -248h-186zM362 828l38 230l102 376h230l-96 -358l-88 -248h-186z" />
<glyph unicode="#" horiz-adv-x="1434" d="M146 408l48 180h288l104 254h-264l50 186h288l158 406h180l-168 -410h186l168 406h170l-154 -406h248l-48 -182h-276l-102 -248h260l-50 -186h-276l-164 -408h-182l164 408h-176l-170 -408h-176l166 408h-272zM668 592h182l98 252h-182z" />
<glyph unicode="$" horiz-adv-x="1474" d="M-30 152l52 202h546l42 160h-322q-14 0 -29 1t-29 3t-27 6t-23 8q-12 4 -22 10t-16 12q-10 6 -18 13t-12 15q-6 8 -11 17t-9 17t-7 18t-3 20q0 8 -1 20t1 20q-2 10 0 22t4 22l92 342l8 24t8 22q6 12 13 24t13 22q12 20 29 39t35 35q18 14 39 26t45 22q10 4 22 8t24 6 q10 2 23 3t25 1h362l56 208h162l-56 -208h522l-54 -202h-522l-38 -144h328q10 0 20 -1t20 -1q10 -2 21 -5t19 -5q10 -4 20 -9l18 -9t16 -10l16 -12q6 -6 12 -14l12 -16q6 -10 10 -20t6 -18q4 -8 5 -20t1 -22q0 -12 -2 -25t-6 -27l-98 -368q-2 -10 -7 -22t-9 -20 q-6 -10 -13 -22t-11 -20q-6 -8 -14 -19t-16 -19q-10 -10 -19 -18t-17 -16t-18 -15t-20 -13q-8 -6 -19 -13t-21 -11q-14 -6 -27 -12t-27 -8q-12 -4 -25 -6t-25 -2h-354l-58 -214h-158l60 218h-544zM560 990q0 -2 2 -4q0 -4 2 -6t2 -4l4 -4t6 -2q2 -2 5 -3t5 -1h146l38 140 h-146q-4 0 -7 -1t-7 -1q-6 -4 -12 -10q-4 -2 -7 -5t-3 -5q-2 -4 -5 -8t-3 -6l-20 -74v-6zM730 354h132q2 0 6 1t6 1q4 2 9 4t7 4t6 5t6 7q2 2 4 6t4 6l24 92v5v5t-2 5t-4 5l-5 5t-7 5t-9 3t-9 1h-126z" />
<glyph unicode="%" horiz-adv-x="2080" d="M108 812q2 8 3 16t3 16t4 19t4 19l92 348q4 8 8 19t6 21q2 8 7 19t11 21q4 8 10 18l12 20t14 19t16 15t15 13t15 11q8 6 18 10t18 8q8 2 16 5t14 3q8 2 17 3t19 1h430q8 0 17 -1t15 -3q10 -2 18 -5t12 -5l12 -8t10 -8l10 -10t8 -12q4 -8 7 -17t5 -17q0 -8 1 -17t3 -19 q-2 -10 -2 -19t-2 -17l-4 -20t-4 -18l-98 -364q-6 -22 -13 -41t-15 -33l-12 -20t-12 -18q-8 -10 -15 -18t-13 -14q-14 -12 -30 -23t-32 -17q-14 -6 -31 -10t-35 -4h-436q-8 0 -16 1t-16 3t-16 5t-14 7q-8 4 -14 10t-10 12q-6 6 -11 13t-9 15q0 6 -2 14l-4 16q0 8 -1 19 t-3 19zM318 0l1132 1434h294l-1134 -1434h-292zM372 832l4 -8t4 -6q2 -4 7 -6t7 -4t7 -3t7 -1h134q4 0 8 1t8 1q2 2 7 4t7 4q4 2 7 5t5 7q2 2 4 5t4 7l116 436q2 2 1 5t-1 7q-2 2 -3 6t-3 6l-5 5t-7 3q-2 2 -5 3t-7 1h-140q-2 0 -7 -1t-7 -3q-4 -2 -9 -6t-9 -6l-7 -7t-7 -5 q-2 -4 -4 -9t-4 -7l-112 -418v-8v-8zM1080 118q2 8 3 16t3 18q2 8 4 17t4 19l92 348q4 8 8 19t6 21t7 21t9 21q6 8 13 18t11 20q6 8 14 17t16 17q6 6 14 12t16 10q8 6 18 11t20 9q6 2 14 4t14 2q8 2 18 3t18 1h428q10 0 19 -1t17 -1q6 -2 14 -5t12 -5q8 -4 14 -9t10 -9 l10 -10t8 -12q4 -6 7 -15t5 -17q0 -8 1 -18t1 -18v-20t-2 -18q-2 -10 -4 -19t-4 -19l-98 -364q-6 -20 -13 -39t-17 -35q-4 -10 -10 -20t-12 -18t-15 -17l-15 -15q-12 -12 -28 -22t-32 -16q-16 -4 -32 -7t-32 -3h-436q-8 0 -17 1t-17 3q-10 2 -18 4t-14 4t-13 8t-11 12 q-6 6 -10 14t-6 16q-4 6 -6 14t-2 16q-2 8 -3 17t-1 19zM1344 138v7v9l112 418q2 2 4 7t4 9l6 6l8 8q4 2 9 5t9 5q2 2 7 3t7 1h140q4 0 7 -1t7 -3q2 0 4 -2t6 -4q2 -4 4 -7t2 -5q2 -4 2 -7t-2 -5l-116 -436q0 -4 -3 -8t-5 -6l-5 -5t-7 -5q-4 -4 -9 -6t-7 -4q-4 0 -7 -1 t-7 -1h-136q-2 0 -7 1t-7 3t-6 4t-6 6q-2 2 -5 6t-3 8z" />
<glyph unicode="&#x26;" horiz-adv-x="1708" d="M-28 218q0 12 1 24t5 24l90 344q4 16 11 33t15 33q6 16 17 32t23 30q8 10 18 21t20 19t23 18t23 16q14 8 29 14t31 10t33 6t33 2l110 2l-82 192q-2 10 -5 22t-1 22q0 12 1 24t3 22q4 12 6 24t4 22q4 12 8 22t6 20q4 18 13 35t17 33q10 16 21 30t23 26q12 10 25 20t27 20 q14 8 30 16t32 14q14 6 31 10t33 8q18 2 37 4t37 2h326h26h26t26 -2t26 -2q16 -2 31 -5t29 -5t27 -8t23 -12q12 -6 23 -13t19 -15q8 -10 15 -20t9 -20q2 -8 4 -19t2 -19q2 -10 -1 -23t-5 -27l-9 -27t-11 -29q-6 -16 -15 -33t-19 -35q-6 -16 -15 -33t-17 -31q-12 -16 -23 -34 t-21 -34q-12 -14 -23 -30t-23 -32t-24 -31t-24 -29q-12 -16 -27 -29t-27 -25q-14 -12 -28 -22t-26 -16l-136 186q12 10 26 23t22 25q12 14 22 29t18 29q6 14 11 30t9 30t3 28t-5 26q-2 12 -10 21t-16 15q-10 6 -21 11t-23 5q-6 0 -14 -1t-14 -1q-8 -2 -17 -5l-15 -5l-16 -8 l-16 -8q-6 -4 -13 -11t-11 -13q0 -4 -4 -8t-6 -8q-4 -4 -8 -11t-6 -13q-4 -6 -8 -16t-6 -18q-2 -10 -2 -22v-24q0 -10 5 -23t9 -27q8 -14 18 -30t24 -32l326 -406l238 206l132 -182l-218 -200l76 -92l162 4l-74 -280h-358l-94 110q-4 -4 -10 -9t-10 -7q-4 -4 -10 -8t-8 -6 q-4 -4 -9 -7t-9 -5q-4 -4 -11 -9t-11 -7q-16 -10 -33 -20t-33 -16t-34 -10t-36 -4h-584q-12 0 -25 2t-27 6q-12 2 -25 9t-25 13q-10 4 -19 11t-17 13l-14 14l-16 16q-6 8 -12 20t-10 22q-6 10 -11 22t-7 22q-6 24 -6 48zM394 408q-4 -20 1 -41t17 -41q2 -4 7 -10t9 -10 q4 -6 11 -12t15 -10q8 -6 15 -12t15 -8q8 -4 17 -8t15 -6q4 0 11 -1t15 -1q10 0 21 2t21 2q12 2 26 4t26 4t27 7t29 9q16 2 32 8t30 12t28 13t26 15l-232 286l-20 -12t-18 -12q-10 -6 -20 -14t-18 -14q-12 -8 -23 -18t-19 -18t-18 -20t-18 -22q-10 -16 -18 -35t-10 -37z" />
<glyph unicode="'" horiz-adv-x="304" d="M4 828l38 230l102 376h228l-96 -358l-86 -248h-186z" />
<glyph unicode="(" horiz-adv-x="840" d="M-2 20v24t2 24l282 1056q4 12 9 26t13 28q6 14 16 28t20 26q10 14 21 27t21 25q12 12 26 25t26 25q14 10 29 20t29 20q14 8 29 17t29 15t30 12t28 10q14 2 29 5t29 3h356l-58 -216h-190q-8 0 -17 -3t-17 -5q-8 -4 -17 -11t-17 -13t-17 -14t-13 -16q-6 -10 -10 -18l-8 -16 l-278 -1040q-2 -8 -2 -16t2 -16t6 -17t10 -15q4 -6 10 -12t14 -8t16 -5t14 -3h186l-58 -216h-324q-18 0 -35 3t-33 7q-16 6 -33 14t-31 16q-12 6 -24 15t-22 17q-10 10 -19 21t-17 21q-6 10 -13 21t-11 21q-6 10 -10 22t-6 22q0 12 -1 23t-1 21z" />
<glyph unicode=")" horiz-adv-x="840" d="M-76 -224l58 216h182q8 0 18 3t18 5q10 2 20 8t18 12l14 14t14 16t11 17t7 17l278 1040q4 8 3 16t-1 16q-2 8 -5 17t-7 15t-11 12t-13 10t-14 7t-16 3h-190l58 216h356q14 0 28 -3t24 -5q14 -4 26 -10t22 -12t22 -14t20 -16q10 -8 20 -20t16 -22q6 -12 13 -24t13 -24 t10 -26t6 -28q2 -12 3 -26t1 -28q-2 -14 -3 -28t-3 -26l-284 -1056q-6 -24 -18 -46t-30 -46q-10 -10 -20 -22t-20 -22q-12 -10 -24 -21t-24 -21q-14 -10 -29 -20t-29 -20q-16 -8 -32 -18t-30 -16l-40 -16t-40 -12q-18 -6 -38 -9t-38 -3h-320z" />
<glyph unicode="*" horiz-adv-x="1172" d="M220 864l264 132l-194 130l148 174l194 -130l72 266h202l-72 -266l266 132l54 -176l-262 -132l190 -132l-148 -176l-194 130l-70 -262h-206l70 264l-260 -132z" />
<glyph unicode="+" horiz-adv-x="1194" d="M54 428l56 210h424l112 422h210l-114 -422h424l-56 -210h-424l-114 -422h-208l114 422h-424z" />
<glyph unicode="," horiz-adv-x="666" d="M92 -306l228 306h-178l100 374h486l-100 -374l-328 -306h-208z" />
<glyph unicode="-" horiz-adv-x="1194" d="M54 428l56 210h135h131h132h130h130h130h133h135l-56 -210h-264h-264h-264h-264z" />
<glyph unicode="." horiz-adv-x="676" d="M108 0l100 376h486l-100 -376h-486z" />
<glyph unicode="/" horiz-adv-x="680" d="M-276 0l896 1436h220l-896 -1436h-220z" />
<glyph unicode="0" horiz-adv-x="1602" d="M-5 216q-1 18 1 36q0 16 2 32t2 30q2 16 6 35t8 37l178 658q4 18 11 38t13 38q8 20 18 40t18 38t20 37t24 35q12 18 26 34t30 30q12 12 27 24t31 22q14 10 32 19t36 15l28 8t30 8q32 6 66 6h814q36 0 64 -6q14 -4 29 -9t25 -9q14 -6 25 -15t21 -17q8 -10 16 -21t14 -23 q8 -14 14 -30t8 -32t4 -34t2 -34q0 -18 -1 -36t-3 -36q-4 -18 -7 -36t-9 -34l-184 -692q-6 -18 -12 -37t-12 -35q-6 -18 -15 -36t-17 -32q-10 -18 -22 -37t-24 -35l-28 -32t-26 -28t-26 -23t-28 -19q-16 -10 -31 -18t-29 -14t-30 -12t-30 -8q-16 -4 -32 -5t-30 -1h-828 q-16 0 -34 1t-32 5q-16 2 -31 9t-27 15q-14 8 -26 18t-20 20q-8 12 -17 26t-17 30q-4 12 -7 27t-5 31t-3 34zM492 304q0 -8 2 -14q2 -8 6 -15t8 -11q4 -6 10 -12t12 -8q8 -4 16 -6t14 -2h256q12 0 26 6q8 2 16 7t14 9q6 2 12 8t10 12l8 12t6 12l222 828q4 12 0 24q0 6 -4 11 t-8 9l-9 9t-11 7q-4 2 -11 4t-13 2h-266q-6 0 -15 -3l-15 -5q-8 -4 -17 -9t-15 -11q-8 -6 -14 -13t-10 -13t-9 -14t-7 -16l-212 -792q-2 -8 -2 -16z" />
<glyph unicode="1" horiz-adv-x="1122" d="M382 4l266 994h-184l68 254l612 184h118l-384 -1432h-496z" />
<glyph unicode="2" horiz-adv-x="1548" d="M-72 0l180 678q2 12 7 26t9 26q2 14 9 28l13 26q4 10 11 20t11 20q6 8 14 18t14 20q8 8 18 16t18 14q12 6 24 13t22 11q10 2 20 6t20 6q12 2 24 5t24 3l626 32q6 0 12 1t10 3q6 2 12 6l12 8q4 2 9 8t7 10q4 4 7 10l5 10l38 142v6v8q-2 2 -6 5t-8 5q-2 2 -7 4t-9 2t-9 1 t-9 1h-780l64 238h1034q14 0 28 -1t28 -3l28 -8l28 -8q12 -4 24 -11t22 -13q10 -8 20 -18t18 -20q6 -10 13 -20t9 -22q6 -12 9 -25t5 -27q-2 -12 -1 -25t-1 -25t-4 -26t-6 -28l-102 -382q-4 -10 -8 -22t-6 -20q-4 -10 -10 -21t-12 -19q-4 -8 -11 -17t-11 -17q-6 -8 -14 -17 t-14 -15q-8 -8 -18 -16t-16 -14q-8 -6 -18 -13t-22 -11q-10 -6 -23 -12t-23 -8q-14 -4 -26 -6t-22 -2l-580 -30q-10 0 -20 -2t-20 -2q-10 -2 -18 -6t-16 -6q-6 -2 -13 -8t-11 -12t-10 -16t-8 -20l-56 -206h828l-62 -236h-1324z" />
<glyph unicode="3" horiz-adv-x="1518" d="M-4 0l62 238h712q4 0 10 1t8 3q6 2 11 6t9 8q4 2 9 8t9 10q2 4 5 9t3 9l72 272q2 4 2 9v9q-2 2 -5 6t-5 6q-4 2 -8 5t-6 5q-4 2 -9 3t-11 1h-498l64 236h494q4 0 10 1t8 1l12 4t10 6q4 2 9 6t7 8q4 2 7 7t5 9l70 266q2 2 1 7t-3 9q0 4 -3 8t-5 8q-4 2 -8 5t-6 5 q-4 2 -9 3t-11 1h-706l64 236h978q12 0 26 -1t28 -1q12 -2 26 -5t24 -5q14 -4 27 -8t23 -8q10 -6 21 -13t19 -15q6 -6 12 -14t10 -16l8 -20t6 -20t2 -23v-25q-2 -14 -4 -30t-8 -32l-80 -300q-4 -18 -12 -34t-18 -28q-10 -14 -24 -27t-30 -21q-10 -8 -24 -15t-28 -13 q-16 -6 -32 -13t-34 -13q18 -4 32 -10t28 -14q12 -8 23 -19t15 -23q6 -12 11 -27t5 -29q2 -16 0 -34t-8 -36l-86 -322q-2 -12 -7 -24t-9 -22t-11 -22t-11 -20q-6 -10 -14 -19t-14 -17q-8 -8 -18 -17t-18 -15q-8 -8 -19 -15t-21 -13q-12 -6 -23 -12t-21 -8q-10 -4 -21 -7 t-21 -5t-22 -3t-20 -1h-1046z" />
<glyph unicode="4" horiz-adv-x="1696" d="M-84 322l94 352l990 756h582l-198 -736h226l-100 -372h-230l-86 -322h-484l86 322h-880zM386 702h508l126 472z" />
<glyph unicode="5" horiz-adv-x="1576" d="M-6 2l60 232h772q6 0 12 3l10 5q6 4 12 11t10 13q6 6 10 14t6 14q2 8 5 15t5 13l76 282q2 8 3 17t1 15l-4 12t-4 10t-6 8t-8 6q-6 2 -12 3t-12 1h-784l214 758h1316l-64 -236h-832l-90 -282h586q28 0 53 -4t47 -12q14 -4 26 -11t22 -15t20 -18t16 -20l12 -20t8 -20 q4 -10 7 -22t3 -24q2 -12 2 -26t-2 -26q0 -14 -2 -29t-8 -29l-100 -376q-4 -14 -9 -30t-11 -28t-14 -25t-14 -25q-8 -16 -19 -29t-23 -23q-12 -12 -25 -23t-25 -19q-10 -6 -23 -13t-25 -13t-25 -11t-27 -7q-12 -4 -26 -7t-26 -5q-14 -2 -28 -3t-26 -1h-1040z" />
<glyph unicode="6" horiz-adv-x="1572" d="M-8 224q0 12 1 26t5 28l230 870q4 12 9 26t13 26q6 14 15 28t19 26q8 12 19 25t23 25t25 24t25 22q10 8 24 18t26 18q30 18 56 30q10 2 21 6t21 6t21 4t21 2h1058l-64 -236h-728q-6 0 -14 -1t-14 -3q-8 -2 -17 -6t-15 -8q-8 -4 -15 -10t-11 -12t-9 -14t-7 -18l-54 -200 h592q12 0 25 -2t25 -4l24 -8t24 -10q10 -6 21 -13t21 -15t20 -18t16 -18q8 -8 15 -17t11 -19q6 -10 10 -21t6 -19q2 -10 4 -22t2 -22t-2 -22t-4 -22l-108 -406q-4 -10 -8 -22t-10 -20q-6 -10 -13 -22t-13 -20q-6 -10 -16 -21t-18 -19q-8 -10 -19 -20t-21 -18 q-12 -10 -25 -19t-25 -17t-26 -16t-26 -14q-18 -10 -36 -17t-34 -11t-32 -7t-32 -3h-802q-14 0 -30 2t-30 6q-14 2 -28 9t-28 13q-10 6 -20 13t-20 13q-8 6 -16 14t-14 18q-6 8 -14 18t-12 20q-6 10 -9 22t-5 24t-3 25t-1 25zM500 282q0 -6 2 -10t6 -10t10 -8q4 -4 8 -7 t10 -5t12 -3t12 -1h250q4 0 10 1t12 3q8 2 14 6t10 8q6 2 11 7l9 9t7 10l5 10l92 348q2 4 2 9v9q-2 4 -5 9t-5 9q-2 2 -6 5t-8 5q-6 2 -11 4t-7 2h-280q-4 0 -9 -2t-9 -4q-6 -2 -12 -7t-10 -7q-4 -4 -8 -9t-8 -9t-7 -10t-3 -10l-92 -342q-2 -4 -2 -10z" />
<glyph unicode="7" horiz-adv-x="1532" d="M82 0q8 14 19 32t21 34t21 34t21 36q28 44 59 88t63 90q14 20 30 41t30 43q16 22 33 42t33 42q12 16 25 33t27 31q12 14 26 31t28 33q16 20 33 41t35 41q16 20 36 40t36 40l36 40t36 38q16 20 36 40t36 38q20 20 39 40t39 38t40 38l38 38q14 14 29 28t29 28t30 28t28 26 h-794l66 242h1288l-48 -242q-26 -24 -53 -48t-53 -48q-16 -16 -33 -32t-33 -30q-16 -16 -32 -33t-32 -31l-38 -38t-38 -40q-16 -20 -35 -40t-35 -38q-22 -24 -43 -48t-39 -46q-20 -24 -39 -48t-39 -48q-28 -38 -58 -77t-56 -77q-14 -22 -30 -45t-30 -43q-14 -22 -29 -46 t-29 -44l-24 -40t-24 -42t-24 -43t-22 -41q-8 -14 -17 -31t-17 -33q-6 -16 -15 -32t-15 -30h-572z" />
<glyph unicode="8" horiz-adv-x="1580" d="M-24 198q0 10 2 22t4 22l76 286q2 12 8 25t12 25t16 25t20 23q6 8 15 17l17 17q10 8 21 16t19 14l20 12t20 10q10 6 21 11t21 9q22 8 45 13t45 7q-14 2 -26 5t-24 7q-10 2 -20 8t-20 8q-8 2 -16 8t-16 10t-15 10t-11 12q-16 14 -25 30t-13 32q-2 18 -1 38t7 42l58 222 q4 12 9 24t9 24q6 12 13 23t15 21q6 12 15 23t17 21l19 19t21 19t21 16t21 14q10 8 22 15t22 11t22 8t22 6l24 4t22 2h908q14 0 28 -2l28 -4q14 -4 27 -9t25 -11q8 -4 18 -10t18 -12q6 -6 14 -15t12 -17q12 -16 20 -34q4 -10 7 -20t5 -18v-22v-22q0 -12 -2 -25t-6 -25 l-62 -230q-2 -8 -6 -18t-8 -18q-4 -10 -10 -20t-12 -18q-4 -8 -12 -16t-14 -16q-8 -10 -17 -18t-17 -14t-18 -13t-22 -13q-10 -6 -21 -12t-21 -10q-6 -2 -15 -7t-19 -7q-8 -4 -18 -6t-18 -4q8 -2 15 -4t15 -4q6 -4 14 -7t12 -5q8 -4 15 -9t11 -7q6 -4 12 -10t10 -12 q6 -6 12 -15t10 -17t8 -19t4 -19q2 -10 3 -20t1 -20t-2 -21t-4 -21l-76 -284q-4 -14 -9 -28t-11 -26q-8 -12 -15 -25t-15 -25q-8 -10 -18 -22t-18 -20q-8 -10 -19 -19t-21 -17q-8 -8 -19 -15t-21 -13q-12 -6 -23 -12t-21 -10q-14 -6 -29 -10t-27 -6q-14 -4 -28 -5t-26 -1 h-894q-12 0 -26 1t-24 5q-12 2 -24 8l-24 12q-8 4 -15 10t-15 12q-6 6 -13 14t-13 14q-4 8 -9 19t-9 19t-8 19t-8 21q0 10 -1 22t-3 22zM500 288q0 -6 1 -13t3 -13t6 -11t10 -7q4 -4 13 -6t17 -2h262q6 0 14 1t12 3q6 2 13 6t11 8q8 6 14 13t8 13q6 8 10 16t6 16l64 240 q2 8 3 15t1 13t-1 13t-3 11q-4 6 -8 10t-10 8q-4 2 -12 4t-16 2h-264q-8 0 -16 -3t-14 -5q-8 -4 -15 -10t-11 -12t-10 -13t-10 -13q-2 -8 -5 -15t-5 -13l-62 -230q-2 -6 -3 -13t-3 -13zM668 914q0 -6 1 -13t3 -11q2 -6 7 -11t11 -7q12 -6 32 -6h258q6 0 13 1t13 3q8 2 14 7 t12 9q4 4 10 11t12 13q4 6 8 15t6 17l46 174q2 6 3 13t1 13t-2 13t-4 13q0 6 -4 11t-10 9q-4 4 -12 7t-18 3h-258q-8 0 -16 -3t-16 -5q-6 -2 -13 -8t-13 -12t-11 -13t-9 -13l-8 -16t-6 -14l-46 -170q-2 -10 -3 -17t-1 -13z" />
<glyph unicode="9" horiz-adv-x="1576" d="M-6 0l60 234h738q6 0 14 1t14 5q6 2 14 7t16 9t15 10t11 12t9 13t7 13l54 204h-592q-16 0 -31 3t-31 7q-14 4 -29 11t-27 15q-8 4 -17 10t-15 12q-8 6 -15 14t-13 14q-6 8 -12 17t-12 19q-4 8 -9 19t-7 21q-2 8 -4 19t-2 21v22t4 22l112 420l8 24t10 22q6 12 15 24t15 22 q10 10 20 21t18 21q10 10 23 21t25 21q10 8 23 17t23 17q12 8 26 15t26 11q12 6 25 10t25 8q12 2 25 4t23 2h830q12 0 26 -2t26 -4q14 -4 27 -10t25 -12q8 -4 17 -10t17 -12q10 -6 18 -14t14 -16q8 -10 15 -20t13 -18q6 -10 11 -22t9 -22t5 -22t1 -24t-1 -24t-3 -24 l-248 -924q-6 -24 -20 -48q-6 -12 -16 -25t-18 -25q-8 -10 -17 -18t-17 -16q-8 -10 -19 -18t-19 -16q-12 -10 -26 -18t-26 -16t-26 -15t-28 -13t-29 -11t-29 -7q-14 -4 -29 -6t-27 -2h-1038zM642 784q0 -6 2 -10q0 -4 3 -10t7 -8q2 -4 7 -7t9 -5q6 -4 11 -5t11 -1h252 q4 0 10 1t10 3q8 2 14 6l12 8q6 2 11 8t11 10q4 4 7 10t3 10l94 350q2 4 2 10t-2 10t-5 9t-7 9q-2 2 -6 5t-8 5t-10 4t-10 2h-270q-2 0 -7 -1t-9 -3l-12 -8t-10 -8t-8 -9t-8 -9t-7 -10t-3 -8l-94 -348v-10z" />
<glyph unicode=":" horiz-adv-x="666" d="M12 0l100 374h486l-100 -374h-486zM188 652l100 374h486l-100 -374h-486z" />
<glyph unicode=";" horiz-adv-x="666" d="M6 -306l226 306h-178l100 374h486l-100 -374l-326 -306h-208zM228 652l100 374h486l-100 -374h-486z" />
<glyph unicode="&#x3c;" horiz-adv-x="1156" d="M112 528l682 538h448l-60 -222h-354l-406 -320l230 -314h364l-58 -218h-452z" />
<glyph unicode="=" horiz-adv-x="1194" d="M-8 190l54 208h135h131h132h130h131h129h134h134l-56 -208h-263h-265h-263h-263zM116 660l58 210h133h133h131h131h129h131h133h135l-58 -210h-264h-264h-263h-265z" />
<glyph unicode="&#x3e;" horiz-adv-x="1156" d="M-30 -8l56 218h362l398 314l-234 320h-354l60 222h450l394 -538l-684 -536h-448z" />
<glyph unicode="?" horiz-adv-x="1414" d="M134 0l100 374h486l-100 -374h-486zM208 1230l54 206h1012q26 0 44 -6q12 -4 23 -8t21 -8t20 -11t18 -13l17 -17t15 -17q8 -10 14 -20t10 -18q6 -10 10 -21t8 -21q2 -10 4 -22t2 -22q0 -12 -2 -24t-4 -22l-74 -274q-2 -10 -6 -21t-8 -19q-6 -10 -13 -22t-13 -20 q-6 -10 -14 -22t-18 -20l-19 -19l-19 -19q-10 -10 -20 -18t-20 -14t-21 -13t-23 -13q-10 -4 -22 -9t-22 -7q-10 -4 -21 -5t-19 -1h-212q-4 0 -13 -2t-17 -4l-20 -8t-16 -6q-8 -4 -16 -10t-14 -12t-11 -13t-7 -15l-34 -130h-502l56 210q2 8 6 20t8 20t11 20t13 20q4 8 12 18 l16 20q8 8 17 18t17 18q10 8 20 17t20 15q8 6 19 13t19 13l20 8t20 6t21 4t19 2h250q6 0 13 1t15 5q6 2 14 6l16 8q6 2 13 8t11 10q4 6 9 13t7 13l52 198q2 6 1 12t-3 10q-2 6 -7 10t-11 8q-4 2 -11 6t-13 6t-13 3t-13 1h-696z" />
<glyph unicode="@" horiz-adv-x="1658" d="M91 505q-1 41 3 83t13 89t23 99q8 34 22 70t28 70q16 34 37 69t43 69q22 32 48 66t54 64q28 32 60 62t64 58q32 26 65 49t67 45q34 20 70 39t74 35q36 16 76 28t78 20q40 8 81 13t83 5q28 0 59 -3t59 -9t56 -16l56 -20q26 -12 52 -27t48 -31q22 -18 44 -39t42 -41 q20 -22 38 -49t32 -55q12 -28 24 -61t18 -65q6 -34 9 -70t1 -74t-9 -79t-17 -83q-8 -32 -20 -61t-26 -55q-12 -26 -28 -50t-34 -44q-18 -22 -38 -39t-40 -33t-43 -30t-45 -24t-47 -20t-47 -16q-24 -8 -49 -15t-49 -9l-48 -8t-48 -6q-22 -2 -45 -3t-43 -1h-220h-226 q-12 0 -25 4t-23 12q-12 8 -22 18t-16 22t-11 25t-7 27t-2 29t4 29l88 332q4 16 12 33t18 31t24 30t28 30t30 25t32 19t32 13t30 5h230h220q18 0 35 -4t33 -12t30 -20t26 -26t20 -30t12 -32q6 -18 6 -36t-4 -36l-68 -250q-2 -6 -2 -12v-10q0 -6 2 -11t4 -7q2 -4 6 -6t8 -2h8 t10 4q12 8 26 20t28 28q12 16 25 33t23 35t20 38t18 40q18 42 28 78q6 22 10 46t4 46t-1 45t-5 45q-2 20 -9 42t-15 42t-18 39t-22 37q-16 20 -32 38t-36 34q-18 16 -40 31t-44 27q-24 12 -49 23t-53 17q-26 6 -56 11t-58 5q-24 0 -50 -3t-50 -5q-24 -4 -48 -10t-46 -14 q-22 -10 -45 -20t-43 -22q-22 -12 -44 -26t-42 -30q-34 -26 -65 -55t-59 -61q-30 -32 -57 -66t-47 -68q-24 -36 -44 -72t-36 -72l-28 -72t-22 -68q-18 -62 -23 -121t1 -111q4 -52 21 -99t43 -85q26 -40 63 -71t85 -51q48 -22 105 -35t123 -13h30h28q16 0 31 2t29 4 q16 2 32 7t28 11q16 6 32 15t32 19h142q-8 -14 -19 -28t-21 -26q-12 -12 -24 -23t-26 -19q-12 -10 -28 -19t-30 -17t-30 -15t-32 -13q-14 -6 -30 -12t-30 -8q-16 -4 -32 -7t-30 -5t-30 -4t-30 -2q-12 0 -26 -1t-26 -1q-32 2 -64 6t-64 10q-30 6 -61 15t-57 19q-28 12 -55 27 t-51 31t-47 37t-43 43q-18 22 -34 49t-30 55q-12 30 -21 63t-15 69t-7 77zM713 568q1 -4 1 -6q0 -4 3 -7l5 -5t7 -5t7 -5t7 -3t7 -1h88q4 0 9 1t9 3t8 5t8 5t8 6t6 8q2 2 5 6t3 8l90 332v7v9q-2 2 -3 6t-5 8q-2 2 -6 5t-6 5t-7 3t-9 1h-84q-2 0 -7 -1t-9 -3q-6 -2 -11 -5 t-7 -5l-9 -9t-9 -7q-4 -4 -6 -9t-4 -7l-88 -332q-2 -4 -1 -8z" />
<glyph unicode="A" horiz-adv-x="1760" d="M-194 0l1016 1430h502l162 -1430h-536l-46 380h-582l-276 -380h-240zM492 620h394l-64 488z" />
<glyph unicode="B" horiz-adv-x="1564" d="M-78 2l380 1430h1076q16 0 30 -1t28 -1q14 -2 27 -6t25 -6q14 -4 28 -9t24 -11t20 -15t18 -17t15 -19t9 -19q6 -10 10 -22t6 -22q2 -12 3 -24t-1 -24q0 -12 -2 -25t-4 -25l-72 -262q-2 -14 -7 -27t-11 -23t-15 -21t-17 -19q-8 -10 -17 -17t-19 -13q-8 -6 -20 -13t-22 -11 q-6 -2 -16 -6t-20 -6q-8 -4 -18 -6l-20 -4q-16 -4 -31 -6t-29 -2t-28 -1t-26 -1q14 -2 28 -5t26 -5q14 -4 27 -8t25 -6q18 -4 35 -12t29 -16l12 -8l12 -8q4 -4 9 -10t9 -10q6 -8 11 -19t5 -21v-25t-4 -25l-86 -324q-6 -18 -12 -35t-12 -31q-8 -16 -18 -29t-20 -25 q-8 -10 -19 -21t-23 -19t-24 -18t-24 -16l-24 -12t-22 -8q-12 -4 -25 -9t-25 -7q-14 -4 -30 -7t-30 -3q-14 -2 -29 -3t-27 -1h-1078zM484 236h324q6 0 12 2t10 4q6 2 12 8l10 10q6 6 11 12t9 12q2 6 5 13t5 13l70 260v10v10q-2 4 -5 8t-5 8q-4 2 -9 6t-9 6q-2 2 -8 4t-10 2 h-318zM652 858h316q6 0 12 1t10 5q8 2 14 6t10 8l10 10l10 10q10 12 12 22l60 222v10t-2 10l-4 8t-6 8q-4 2 -8 6t-8 6t-9 4t-9 2h-318z" />
<glyph unicode="C" horiz-adv-x="1290" d="M-28 216q2 14 2 29t2 31t5 33t9 35l196 740q4 18 10 36t12 32t15 30t15 32q10 16 22 33t22 31t23 28t25 26l24 20t22 20q12 8 25 16t25 14q16 8 33 15t33 11t34 7t34 3h842l-62 -236h-548q-12 0 -26 -6q-8 -4 -16 -9t-14 -9q-14 -12 -24 -24q-4 -6 -8 -13t-4 -13 l-220 -820q-4 -12 0 -24q0 -6 4 -13t8 -11q6 -4 12 -9t10 -7q6 -4 13 -5t13 -1h560l-64 -238h-844q-16 0 -33 1t-31 5q-14 2 -29 9t-29 13q-12 6 -23 14t-19 18q-10 8 -18 21t-12 25q-6 10 -10 23t-8 27t-6 29t-2 31z" />
<glyph unicode="D" horiz-adv-x="1538" d="M-86 2l382 1432h1036q14 0 29 -1t27 -3q16 -2 29 -6t27 -6q16 -4 31 -13t29 -17q14 -10 26 -22t20 -26q6 -10 13 -24t9 -28q6 -14 9 -31t3 -35q-2 -14 -2 -30t-2 -30q-2 -16 -5 -34t-9 -36l-198 -744l-12 -36t-12 -34t-14 -32t-14 -30q-10 -18 -21 -34t-21 -30t-24 -28 t-26 -24q-12 -12 -26 -22t-28 -18q-14 -10 -30 -17t-30 -13q-20 -8 -41 -14t-39 -8q-18 -4 -39 -5t-39 -1h-1038zM480 234h292q6 0 13 3t11 5q8 2 15 8t11 12q4 4 10 11t8 13q6 6 9 13t5 13l222 830v10t-2 10q0 4 -3 9t-7 9q-2 2 -7 6t-9 6q-12 6 -22 6h-288z" />
<glyph unicode="E" horiz-adv-x="1284" d="M-86 2l382 1432h1106l-62 -232h-600l-92 -344h584l-64 -234h-584l-104 -390h614l-62 -232h-1118z" />
<glyph unicode="F" horiz-adv-x="1270" d="M-86 0l382 1434h1106l-62 -232h-604l-92 -340h588l-64 -240h-592l-166 -622h-496z" />
<glyph unicode="G" horiz-adv-x="1528" d="M-26 220q2 16 3 34t3 34t5 33t7 33l190 714q4 18 11 37t13 37q8 18 17 36t17 32q6 14 17 30t21 30t22 28t22 24q12 14 26 26t26 22q16 8 31 18t29 18q14 6 30 11t30 9q16 2 31 5t31 3h1026l-62 -232h-718q-6 0 -15 -2t-15 -4q-8 -4 -17 -8t-15 -8q-8 -4 -16 -10t-12 -12 t-9 -13t-7 -13l-218 -818q-2 -6 -3 -14t1 -14t5 -13t9 -13l10 -10t10 -8q6 -2 13 -5t13 -3h208q6 0 14 1t16 5q6 2 14 8t14 10q8 4 14 11t10 13q6 6 10 13t6 13l84 316h-266l62 230h770l-228 -852h-1070q-20 0 -38 2t-32 6q-16 2 -30 9l-26 13q-12 8 -24 18t-22 20 q-8 12 -15 25t-13 25l-8 24t-6 24t-4 26t-2 26z" />
<glyph unicode="H" horiz-adv-x="1560" d="M-82 2l382 1432h502l-154 -572h378l154 572h498l-384 -1432h-498l166 622h-378l-166 -622h-500z" />
<glyph unicode="I" horiz-adv-x="678" d="M-48 0l382 1430l504 4l-384 -1434h-502z" />
<glyph unicode="J" horiz-adv-x="1154" d="M-168 2l64 236h466q14 0 29 3t25 7q24 12 42 28q8 8 15 17t11 19q4 8 8 20t6 20l290 1082h504l-294 -1096q-4 -18 -10 -36t-12 -34q-8 -18 -17 -35t-17 -33q-10 -16 -21 -30t-21 -26q-12 -12 -26 -25t-26 -23l-27 -18t-29 -18q-14 -10 -32 -17t-34 -13q-20 -6 -42 -12 t-46 -8q-24 -4 -51 -6t-53 -2h-702z" />
<glyph unicode="K" horiz-adv-x="1696" d="M-86 2l382 1432h502l-172 -642l684 642h318l-490 -420l286 -1014h-592l-136 608l-160 -150l-122 -456h-500z" />
<glyph unicode="L" horiz-adv-x="1284" d="M-66 2l382 1432h506l-322 -1200h594l-62 -232h-1098z" />
<glyph unicode="M" horiz-adv-x="2002" d="M-78 2l382 1432h644l34 -816l490 816h628l-384 -1434h-496l306 1144l-680 -1142h-346l-58 1130l-304 -1130h-216z" />
<glyph unicode="N" horiz-adv-x="1606" d="M-82 4l382 1432h654l230 -1172l314 1172h224l-384 -1432h-654l-232 1194l-320 -1194h-214z" />
<glyph unicode="O" horiz-adv-x="1586" d="M-18 208q-2 16 0 32v29t4 31q2 14 5 29t5 29l188 708q6 20 13 42t13 40q8 18 17 36l17 34q8 18 20 34t22 32t23 29t25 23q12 12 26 22l28 20q14 8 29 16t29 14q18 6 38 11t40 9q18 2 39 5t39 3h782q36 0 68 -6q18 -4 33 -9t27 -11q14 -6 27 -15t25 -17q10 -10 20 -25 t16 -29t11 -30t7 -34q4 -18 5 -40t-1 -44q-2 -14 -4 -32t-6 -36t-8 -39t-10 -41l-164 -616q-6 -22 -13 -44t-15 -42q-6 -20 -15 -39t-17 -37q-8 -22 -20 -41t-24 -37q-14 -18 -28 -35t-26 -31q-22 -22 -48 -40t-50 -30q-16 -8 -34 -15t-36 -9t-37 -5t-39 -3h-840 q-16 0 -32 1t-28 5q-14 2 -27 8t-23 12q-14 8 -27 18t-21 22q-10 12 -18 25t-12 29q-4 12 -8 26t-6 28t-4 30zM479 297q1 -7 1 -13q2 -6 6 -13t6 -11q6 -4 12 -9t10 -7q6 -4 13 -6t13 -2h268q6 0 14 2t14 6q8 2 16 8t14 12q6 4 12 11t10 13t8 14t6 14l216 806q2 6 2 14v14 q-2 6 -5 13t-7 11l-9 9t-11 7t-12 5t-12 3h-256q-10 0 -19 -2t-17 -4q-8 -4 -17 -9t-15 -9q-8 -6 -16 -15t-14 -17q-4 -10 -9 -20l-9 -18l-212 -794q-2 -6 -1 -13z" />
<glyph unicode="P" horiz-adv-x="1538" d="M-78 4l382 1428h1060q12 0 27 -1t29 -3t28 -6t28 -6q12 -4 24 -11t22 -13q12 -8 22 -18l18 -18l12 -20t8 -18q4 -10 7 -23t5 -25t2 -26t-4 -30q0 -16 -3 -33t-9 -35l-94 -356q-6 -16 -11 -33t-11 -31q-6 -16 -14 -29t-16 -25q-6 -12 -16 -24t-18 -20q-8 -10 -19 -20 t-21 -18l-24 -16t-22 -14l-26 -13t-26 -11q-18 -6 -35 -10t-33 -6q-14 -4 -32 -5t-32 -1h-574l-138 -510h-496zM618 750h296q6 0 13 2t11 6q8 2 15 8t11 12t10 13t10 13q2 6 5 13t5 13l80 296q2 8 2 15v13t-3 12l-5 10t-6 8t-8 6t-10 4t-10 2h-296z" />
<glyph unicode="Q" horiz-adv-x="1584" d="M0 208v72q2 18 6 36t8 34l196 730q2 14 8 28t10 30q6 16 14 30t14 30q8 14 17 28t19 28t22 29t22 27q12 12 25 23t23 21q12 10 26 20t28 18q18 8 38 17t40 15q18 6 41 9t45 3h830q22 0 41 -3t37 -7q16 -6 31 -14t27 -16q12 -10 22 -22t18 -24t14 -26t10 -30q4 -12 7 -24 t3 -24t2 -26t2 -26q-2 -16 -3 -34t-3 -34q-4 -16 -7 -34t-7 -32l-182 -680q-4 -16 -10 -34t-14 -36t-17 -37t-17 -37q-8 -14 -17 -28t-17 -26q-8 -14 -18 -27t-20 -25q-10 -14 -23 -27t-25 -23q-14 -12 -29 -23t-29 -19t-29 -15t-29 -11q-16 -4 -33 -7t-33 -3h-138l48 -182 h-204l-46 182h-522q-20 0 -38 2t-32 6q-16 2 -30 9l-26 13t-22 14t-20 18q-8 8 -16 20t-12 22q-6 12 -11 25t-7 25q-4 12 -6 26t-2 26zM506 288q2 -6 6 -13t8 -13l9 -9t11 -7q4 -4 12 -6t14 -2h120l-48 208h192l48 -192q6 2 12 7t10 11q2 2 6 5t4 7q0 2 2 6l4 8l222 832 q4 12 2 24q-2 6 -6 11t-8 9q-4 2 -8 6t-10 8l-12 4t-12 2h-264q-6 0 -14 -2l-16 -4q-6 -4 -15 -9t-15 -11l-13 -13t-11 -13t-8 -14t-6 -14l-214 -800q-2 -6 -2 -13v-13z" />
<glyph unicode="R" horiz-adv-x="1642" d="M-82 2l382 1430h1078q38 0 71 -6t59 -14q24 -10 45 -26t33 -36q6 -8 10 -21t8 -25q2 -14 4 -30t2 -30q-2 -24 -7 -53t-13 -61l-78 -294q-4 -10 -7 -22l-5 -20q-2 -10 -7 -22t-11 -22q-4 -10 -10 -21t-12 -19t-16 -18l-18 -18q-6 -6 -14 -12t-16 -10t-19 -9t-21 -7 q-10 -4 -22 -7t-24 -3q-14 -2 -28 -3t-30 -1l120 -620h-556l-72 618h-160l-166 -618h-500zM652 858h314q8 0 15 1t9 3q6 2 12 7t10 9q2 2 6 8t6 12t5 13t5 17l58 218q2 6 3 13t1 11t-3 8t-5 8q-2 2 -7 5t-9 3q-6 0 -12 1t-10 1h-308z" />
<glyph unicode="S" d="M-56 0l62 238h668q6 0 12 1t12 3q8 2 14 4t12 6q4 2 10 6t10 8t8 10t4 12l34 126q2 4 2 10t-2 10t-5 8t-7 8l-6 6t-8 6q-6 2 -11 3t-11 1h-484q-12 0 -25 1t-25 3t-23 5t-19 7q-10 2 -19 8t-17 10q-8 6 -14 13t-12 13q-10 16 -18 34q-4 8 -6 20t-2 24q-2 20 0 45t10 53 l120 448q4 12 8 25t10 25q4 12 11 26t15 26q6 12 15 25t17 25q10 12 21 24t23 22q8 10 19 18t21 16q12 8 24 15t24 13q12 4 25 8t25 8q12 2 27 4t29 2h968l-64 -236h-670q-4 0 -10 -1t-8 -3q-6 -2 -12 -5l-10 -5l-8 -8t-8 -6q-4 -4 -7 -9t-3 -9l-28 -106q-2 -4 -2 -8v-6 q0 -4 2 -9t4 -7q2 -4 6 -10t8 -8q6 -4 11 -6t11 -2h440q12 0 26 -1t28 -3t27 -6t25 -6q12 -4 24 -10t22 -12t21 -15t19 -17q6 -8 12 -17t8 -17l8 -20t6 -20t2 -23v-25q-2 -12 -4 -27t-6 -31l-118 -438q-2 -10 -6 -22t-8 -22q-2 -10 -7 -22t-9 -20q-8 -16 -16 -30t-16 -26 t-19 -25t-19 -23q-22 -22 -46 -41t-52 -33l-36 -16t-38 -10q-18 -4 -38 -7t-40 -3h-948z" />
<glyph unicode="T" horiz-adv-x="1356" d="M166 1194l64 242h1254l-64 -242h-376l-320 -1194h-500l320 1194h-378z" />
<glyph unicode="U" horiz-adv-x="1572" d="M-8 256q2 18 3 36t5 36q0 18 4 37t8 35l278 1036h502l-288 -1078l-4 -20t0 -18q0 -10 3 -19t7 -17t11 -17t15 -15t18 -10t22 -4h476q12 0 23 1t19 5q10 2 19 8t17 10q8 6 17 14t13 18q6 8 11 20t9 20l294 1102h216l-282 -1056q-4 -16 -10 -33t-10 -33q-6 -18 -14 -36 t-16 -34q-6 -16 -16 -34t-20 -32l-24 -32t-26 -32q-10 -12 -22 -24t-26 -20q-12 -8 -28 -18t-30 -16q-18 -8 -38 -16t-40 -10q-22 -4 -46 -7t-48 -3h-760q-22 0 -44 2t-38 6q-18 2 -34 9t-30 15q-12 8 -23 18t-21 20q-8 12 -16 25t-14 25q-6 14 -11 31t-7 33q0 18 -2 36 t-2 36z" />
<glyph unicode="V" horiz-adv-x="1632" d="M192 1436h532l80 -1132l704 1132h240l-896 -1436h-562z" />
<glyph unicode="W" horiz-adv-x="2164" d="M142 0l44 1436h502l-38 -940l460 940h500l-34 -926l460 926h218l-704 -1436h-484l30 952l-472 -952h-482z" />
<glyph unicode="X" horiz-adv-x="1664" d="M-202 0l722 630l-340 806h620l176 -418l484 418h306l-708 -608l336 -828h-612l-174 436l-516 -436h-294z" />
<glyph unicode="Y" horiz-adv-x="1590" d="M170 1436h590l198 -590l492 590h258l-756 -902l-142 -534h-500l148 556z" />
<glyph unicode="Z" horiz-adv-x="1466" d="M-184 0l998 1194h-552l64 242h1264l-1002 -1198h566l-64 -238h-1274z" />
<glyph unicode="[" horiz-adv-x="852" d="M-62 -224l440 1658h654l-58 -220h-282l-328 -1216h286l-60 -222h-652z" />
<glyph unicode="\" horiz-adv-x="680" d="M106 1436h218l132 -1436h-222z" />
<glyph unicode="]" horiz-adv-x="852" d="M-64 -224l60 222l280 2l328 1214h-280l58 220h652l-444 -1658h-654z" />
<glyph unicode="^" horiz-adv-x="1220" d="M-32 656l654 778h196l240 -780h-206l-194 542l-476 -540h-214z" />
<glyph unicode="_" horiz-adv-x="1078" d="M-12 -276l26 112h1028l-30 -112h-1024z" />
<glyph unicode="`" horiz-adv-x="616" d="M-32 1520h336l240 -328h-318z" />
<glyph unicode="a" d="M-14 160q0 16 1 33t3 33t6 34t6 34q4 16 8 33t8 31q2 14 7 30t9 30t10 31t10 33q6 16 13 31t15 31q6 14 16 30t18 28q10 14 23 27t25 23q14 12 30 22t32 16q28 12 60 18t66 6h496q6 0 15 2t15 6q8 2 16 9t16 13q4 2 9 8t9 12t7 12l5 10q4 12 0 24q-2 6 -4 11t-6 9l-8 8 t-10 8q-10 6 -22 6h-660l54 206h920q20 0 39 -2t35 -4q14 -4 29 -10t27 -12t24 -16t20 -20t15 -23t11 -25q6 -12 9 -25t5 -25q2 -14 2 -28v-28q0 -18 -2 -38t-6 -38t-7 -37t-9 -35l-184 -688h-428v112q0 -6 -4 -12t-6 -8q-4 -4 -9 -10t-7 -8q-4 -6 -10 -12t-10 -8l-10 -10 t-10 -8q-12 -10 -26 -17t-28 -11q-12 -2 -27 -5t-29 -3h-446q-36 0 -62 6q-14 2 -26 7t-24 11q-10 6 -19 13t-17 17q-6 8 -11 20t-9 24t-6 27t-2 31zM480 256q2 -6 3 -12t3 -10q4 -4 9 -10t11 -8q4 -4 11 -6t11 -2h194q4 0 10 1t12 5q8 2 15 8t13 10q4 2 9 8t7 10l8 12t4 10 l64 238h-236q-8 0 -17 -3l-15 -5q-8 -4 -17 -9t-17 -11l-13 -13t-11 -13q-6 -8 -10 -16t-6 -14l-40 -150q-2 -4 -2 -10v-10z" />
<glyph unicode="b" horiz-adv-x="1452" d="M-108 0l382 1436h486l-102 -382h134h134h134h134q20 0 36 -1t26 -3q12 -2 21 -4t13 -4q6 -2 11 -4t7 -2v-3t-2 -1q10 -4 21 -11t21 -15q8 -8 15 -18t15 -18q12 -22 20 -47t8 -53v-30t-4 -30q0 -14 -3 -32t-9 -36l-116 -436l-12 -36t-12 -34t-14 -31t-16 -27 q-12 -16 -23 -32t-21 -28q-14 -14 -27 -26t-27 -20q-10 -10 -24 -18t-26 -14q-14 -6 -27 -13t-27 -9q-18 -6 -33 -10t-25 -4q-10 -2 -19 -3t-13 -1h-11h-7h-254h-254h-256h-254zM444 250q2 -6 5 -12t5 -8q2 -4 7 -9l7 -7q12 -6 24 -6h212q4 0 10 1t10 5q8 2 15 7t11 9t9 10 t7 10q10 12 12 24l136 504q2 4 2 10v12q-2 6 -4 13t-4 11t-6 9t-8 7l-10 5t-12 3h-212q-12 0 -22 -6q-8 -4 -15 -9t-11 -9q-6 -4 -11 -10t-9 -12t-7 -13t-5 -13l-136 -504q-4 -12 0 -22z" />
<glyph unicode="c" horiz-adv-x="1182" d="M-6 204q0 12 1 25t3 25q0 12 2 25t4 25l118 438q4 14 9 28t11 30q6 14 15 30t17 30t19 29t19 29q12 14 25 27l25 25q12 8 25 18t25 18q14 8 29 16t29 14q10 2 23 6t25 6t26 3t26 1h796l-54 -206h-484q-8 0 -17 -3t-17 -5q-8 -4 -17 -9t-17 -11t-16 -13t-14 -13 q-4 -8 -9 -16t-5 -14l-128 -476q-2 -6 -2 -14t2 -14q2 -8 6 -15t8 -11q6 -6 13 -11t13 -7q6 -4 14 -5t16 -1h482l-56 -208h-780q-20 0 -39 2t-33 6q-16 2 -31 9t-27 13q-10 8 -20 17t-18 19q-8 8 -15 21t-13 25l-5 20t-5 24q-6 24 -4 48z" />
<glyph unicode="d" horiz-adv-x="1434" d="M-56 186v25t2 25q0 12 3 25t5 25l124 468q4 18 10 35t12 33q8 16 16 31t16 29t18 27t20 23q8 10 19 22t21 20q12 8 26 18t26 16q14 8 29 15t27 11q18 6 34 11t26 7t19 4t15 2q4 0 9 -1l5 -1q2 0 4 -1l2 -1h134h134h134h134l102 380h488l-384 -1434h-1024q-22 0 -38 1 t-26 1q-12 2 -20 4t-14 4q-4 2 -8 5t-4 5l-4 4t-4 2q-10 6 -20 13t-18 17q-8 8 -15 18t-13 20q-4 8 -8 20l-8 24l-4 24t-2 24zM428 248q2 -6 5 -12t5 -8q2 -4 6 -9t8 -7q12 -6 22 -6h212q6 0 12 1t10 5q6 2 13 7t9 9q6 4 11 10t7 12q6 6 9 12t3 10l138 510q0 4 1 10t1 12 q-2 6 -5 12t-3 10q-2 4 -6 8l-8 8q-4 2 -9 4t-11 2h-216q-4 0 -10 -2t-10 -4q-8 -4 -15 -9t-11 -9t-9 -10t-9 -12t-7 -12t-5 -12l-136 -508q0 -4 -1 -10t-1 -12z" />
<glyph unicode="e" horiz-adv-x="1430" d="M-14 140v27v29q2 10 3 21t3 21q4 12 6 25t4 25l126 474l8 24t6 22q4 10 9 21t7 21l16 32t16 30t19 28t19 24l24 24t24 20t27 16t29 12q12 4 27 8t29 6t29 4t27 2h810q18 0 35 -2t33 -4q14 -4 30 -9t30 -13q10 -6 19 -15t15 -17q8 -10 14 -22t10 -24l5 -20t3 -22v-23 t-2 -25q-2 -16 -6 -35t-8 -37l-102 -374h-814l-30 -114q-2 -8 -2 -16t2 -16q0 -8 5 -16t9 -14t11 -13t13 -9q6 -4 14 -6t16 -2h674l-56 -206h-1006q-14 0 -30 1t-30 3t-28 8t-26 12q-10 4 -20 12t-16 16t-12 20t-10 24q-4 8 -6 19t-2 23zM574 618h342l44 166q2 4 2 10v10 l-4 12t-4 10t-6 8l-8 8q-4 2 -9 4t-9 2h-232q-6 0 -11 -2t-9 -4l-12 -8t-10 -6q-4 -4 -9 -10t-9 -10q-10 -12 -12 -22z" />
<glyph unicode="f" horiz-adv-x="1146" d="M4 4l228 850h-200l54 202h200l30 110q2 8 6 20t6 20t8 19t12 21q6 12 14 25t14 25q8 12 19 25t21 23q8 8 19 17t21 17q12 8 25 16t25 14q14 6 28 10l28 8q14 2 30 4t34 2h658l-54 -202h-350q-8 0 -14 -1t-10 -1t-9 -2t-9 -4q-6 -4 -11 -9t-7 -9l-5 -10l-5 -10l-34 -126 h386l-54 -204h-386l-228 -850h-490z" />
<glyph unicode="g" horiz-adv-x="1430" d="M-48 -394l54 204h640q12 0 24 3t22 5q10 4 19 11t17 15q8 6 15 15t13 17q10 18 14 36l26 90h-550q-18 0 -33 1t-27 5q-16 2 -28 8t-22 12t-20 13t-16 15q-8 8 -16 17t-12 19q-10 18 -18 40q-4 10 -6 22t-2 24q-2 14 -2 30t2 30t5 30t7 32l124 464q2 12 7 25t9 25l13 26 l13 26t15 25t19 25t21 24t21 22q12 12 25 22t27 20q12 8 27 17t29 15t28 10l28 8q14 2 29 5t31 3h1034l-314 -1164q-2 -14 -7 -28t-11 -26q-6 -14 -14 -27t-16 -25q-6 -12 -15 -25t-17 -23t-20 -21t-22 -21q-10 -8 -21 -18t-23 -18q-10 -8 -21 -15t-21 -13q-14 -6 -29 -12 t-27 -10q-14 -4 -28 -7t-26 -3h-974zM533 258q-1 -6 1 -10q0 -6 3 -12l5 -10t6 -8t8 -6q4 -4 10 -5t10 -1h220q4 0 10 1t10 3t10 6t8 8q4 2 10 8t8 10l5 10t3 10l140 522q2 6 3 12t-1 10q0 6 -3 11t-5 9t-6 8l-8 8q-4 2 -9 4t-9 2h-238q-4 0 -8 -2l-8 -4l-8 -8l-8 -8 q-2 -4 -6 -9t-4 -9q-2 -6 -5 -12t-3 -8l-140 -520q0 -4 -1 -10z" />
<glyph unicode="h" horiz-adv-x="1466" d="M-100 2l382 1436h486l-102 -384h534q34 0 64 -6q14 -4 27 -10t23 -12t21 -15t19 -17q8 -10 15 -20t13 -20t11 -22t7 -24q4 -12 6 -26t2 -26q2 -16 2 -34t-2 -34l-4 -36t-6 -34l-192 -718h-484l212 792v10v10q-2 4 -4 9t-4 9q-4 2 -9 6t-9 6q-2 2 -8 4t-10 2h-232 q-4 0 -10 -2t-10 -4q-4 -4 -10 -9t-10 -9t-8 -10t-8 -10q-2 -6 -5 -12l-5 -10l-208 -780h-484z" />
<glyph unicode="i" horiz-adv-x="630" d="M-72 0l282 1058h482l-284 -1058h-480zM240 1160l74 274h474l-74 -274h-474z" />
<glyph unicode="j" horiz-adv-x="652" d="M-562 -390l54 202h382q6 0 14 3t16 5q6 4 15 9t15 11t12 14t10 14q6 8 11 16t7 16l308 1160h484l-322 -1202q-2 -10 -6 -21t-8 -21q-4 -8 -9 -19t-9 -21q-6 -12 -15 -24t-15 -22q-10 -12 -20 -23t-22 -21q-12 -8 -25 -18t-27 -18t-30 -16t-34 -12q-10 -2 -21 -5t-21 -3 q-10 -2 -22 -3t-24 -1h-698zM314 1162l72 272h476l-72 -272h-476z" />
<glyph unicode="k" horiz-adv-x="1530" d="M-102 0l382 1434h484l-200 -746l516 364h308l-356 -252l234 -800h-578l-96 494l-100 -78l-112 -416h-482z" />
<glyph unicode="l" horiz-adv-x="630" d="M-78 0l382 1434h488l-384 -1434h-486z" />
<glyph unicode="m" horiz-adv-x="2074" d="M-56 0l280 1054h442l-20 -76q6 8 13 16t13 14q8 6 16 13t16 11q6 4 15 8t17 8q6 2 15 4t15 2h470q18 0 32 -3t24 -9t19 -14t15 -16q4 -6 8 -14t6 -14q2 -8 4 -15t2 -13q2 -6 2 -10v-6v-4v4q4 8 10 19t12 21q4 8 12 18t14 16l17 17t17 13q10 6 20 9t22 3h386q20 0 39 -3 t33 -5q14 -4 28 -11t24 -15t20 -18t16 -20t12 -23t10 -25q2 -10 5 -22t1 -24q0 -12 1 -26t-1 -26q0 -16 -2 -33t-6 -33t-7 -33t-7 -31l-188 -706h-442l210 788q2 6 2 13v11q-2 4 -3 9t-3 9q-2 2 -7 5t-7 5q-4 2 -9 3t-9 1h-184q-6 0 -11 -1t-9 -3q-4 -4 -9 -7t-9 -5 q-2 -4 -7 -9t-7 -9l-5 -10t-3 -8l-212 -792h-444l210 784q0 4 1 10t3 12q0 6 -2 11t-4 9t-6 8l-8 8q-4 2 -11 4t-15 2h-176q-4 0 -10 -2t-10 -4q-4 -4 -10 -9t-10 -9t-8 -10t-8 -10q-2 -6 -5 -12l-5 -10l-210 -784h-440z" />
<glyph unicode="n" horiz-adv-x="1464" d="M-54 0l280 1052h1022q38 0 70 -9t58 -25q24 -14 40 -35t28 -47q4 -10 7 -22t7 -24q2 -14 3 -28t1 -30q-2 -16 -2 -32t-4 -32q-2 -16 -6 -35t-8 -37l-186 -696h-484l210 784q2 8 2 15v11q-2 6 -4 11t-4 9q-4 4 -9 8t-9 6q-6 2 -13 3t-13 1h-210q-4 0 -10 -1t-12 -3 q-8 -2 -14 -6t-10 -6q-4 -4 -9 -8t-11 -10q-4 -6 -7 -13t-5 -15l-212 -786h-486z" />
<glyph unicode="o" horiz-adv-x="1446" d="M-19 159q-1 13 1 29v16t2 18q2 8 4 20t6 22l134 508q4 14 8 27t8 25q2 12 8 24t10 22q8 16 18 32t18 30q10 14 20 25t22 21q10 10 23 20t23 16l26 13t24 9q14 2 27 6t25 6t25 3t25 1h836q14 0 28 -1t26 -3t25 -6t23 -6q12 -2 21 -8t15 -12q8 -6 16 -16t14 -18t9 -21 t7 -25q2 -14 4 -30t0 -34q0 -10 -1 -22t-5 -24t-6 -27t-6 -29l-134 -498q-4 -14 -9 -30t-9 -28q-6 -14 -12 -27t-12 -25q-6 -14 -15 -27t-19 -25q-8 -12 -18 -22t-20 -18q-8 -8 -19 -16t-21 -14t-23 -13t-23 -9q-14 -4 -29 -8t-29 -6q-16 -2 -31 -3t-29 -1h-822q-14 0 -30 1 t-30 5q-14 2 -28 8t-26 12q-10 6 -19 13t-15 15q-8 8 -15 17t-11 19q-2 8 -6 20t-6 24t-3 25zM476 260q0 -6 2 -10l4 -12t4 -8q2 -4 6 -9t8 -7q10 -6 20 -6h230q6 0 11 1t11 5q6 2 13 6t11 8q6 2 11 8t7 10q6 6 9 12t3 10l140 520q2 4 2 10v10q-2 4 -5 9t-5 9l-6 6t-8 6 t-9 4t-7 2h-264q-6 0 -14 -6q-4 -4 -9 -8t-7 -6q-2 -4 -6 -9t-4 -7q-2 -4 -4 -10t-4 -8l-138 -518q-2 -6 -2 -12z" />
<glyph unicode="p" horiz-adv-x="1448" d="M-108 -396l386 1450h1028q14 0 28 -2t26 -4l28 -8t24 -10q18 -10 34 -23t26 -29q8 -12 15 -27t11 -29q6 -16 8 -36t0 -40q0 -12 -1 -26t-5 -28q-2 -14 -5 -30t-7 -32l-110 -410q-4 -16 -9 -31t-9 -29q-6 -16 -13 -30l-13 -26q-8 -14 -18 -30t-20 -30t-21 -27t-23 -23 q-10 -10 -22 -20t-22 -18q-12 -8 -25 -15t-25 -13q-18 -6 -35 -12t-33 -8q-16 -4 -33 -6t-33 -2h-546l-106 -396h-480zM546 244q2 -4 4 -10t4 -8q2 -4 7 -7t9 -5q2 -4 8 -5t10 -1h222q4 0 10 1t8 3q6 2 12 5t10 7t9 10t9 10q8 12 12 22l140 524q0 4 1 10t-1 10q0 4 -3 9 t-5 9l-6 6t-10 6q-2 2 -7 4t-11 2h-226q-4 0 -10 -2t-10 -4t-10 -8t-10 -8q-4 -4 -9 -10t-7 -10q-4 -6 -7 -12t-3 -10l-140 -520v-9v-9z" />
<glyph unicode="q" horiz-adv-x="1432" d="M42 186v25t2 25q0 12 3 26t5 26l126 468q4 14 9 28t11 30t14 30l16 28t18 28t20 26q12 14 25 27t25 23q8 8 19 16t23 14q10 8 24 15t26 11l28 8t26 8q14 2 31 4t31 2h1034l-388 -1448h-484l106 394h-538q-18 0 -34 1t-30 5q-14 2 -28 8t-26 12t-22 14t-18 16t-15 18 t-15 20q-4 8 -8 20l-8 24q-2 12 -5 24t-3 24zM530 248l4 -12t4 -8q2 -4 7 -8t7 -6q4 -4 10 -5t10 -1h222q12 0 22 6q6 2 13 8t11 10q4 2 8 7t6 9q2 2 5 8t3 10l142 524v10t-2 10q0 4 -3 9t-5 9q-2 2 -7 6t-9 6q-2 2 -8 4t-10 2h-218q-4 0 -10 -1t-8 -3q-6 -4 -11 -8t-9 -6 q-6 -4 -12 -10t-10 -12t-8 -13t-6 -13l-136 -512q-2 -4 -2 -10v-10z" />
<glyph unicode="r" horiz-adv-x="1098" d="M-30 0l282 1054h486l-24 -94q6 8 15 16t19 14q4 2 9 6t9 8q6 2 12 6t10 6q6 2 13 6t13 8q8 2 15 6t13 6t14 4t14 2q6 2 13 3t13 1h290l-78 -292h-256q-18 0 -37 -3t-35 -5q-18 -4 -34 -10t-30 -12q-6 -4 -14 -8t-14 -6q-6 -4 -12 -10l-12 -12q-8 -6 -14 -13t-8 -13 q-6 -8 -10 -17t-6 -17l-170 -634h-486z" />
<glyph unicode="s" horiz-adv-x="1350" d="M-44 0l50 190h688q2 0 8 1t10 3t9 4t9 6q4 2 8 5t6 7q4 2 6 7t4 9l14 58q2 2 2 6t-2 8q0 2 -3 6t-5 6t-7 5t-7 3q-2 2 -7 3t-9 1h-474q-12 0 -26 1t-28 3t-28 7t-26 11q-8 2 -15 8t-13 12q-8 6 -13 13t-9 15q-4 6 -8 14t-4 16q-2 8 -4 18t-2 18v17t2 17t4 18l4 20l76 280 q4 14 9 27t9 23q8 12 15 24t15 22q8 8 18 19t18 19t19 17t21 15q12 8 24 15t22 13q12 6 25 11t25 9q14 4 30 8l32 8q32 6 58 6h862l-50 -194h-646q-2 0 -6 -1t-8 -1q-4 -2 -10 -4t-10 -4t-8 -5t-6 -5q-4 -4 -7 -8t-3 -6l-16 -58v-7t4 -5l5 -5l5 -5l8 -4t6 -2q6 0 11 -1t7 -1 h474q10 0 22 -1t22 -3t21 -5t19 -5q10 -4 19 -9t17 -11q6 -6 14 -13t14 -15q4 -6 8 -15t8 -17q2 -8 5 -19t3 -21t1 -22t-1 -24t-4 -26t-8 -30l-64 -246q-4 -14 -9 -28t-11 -26t-14 -25t-14 -25q-6 -10 -16 -21t-18 -19q-8 -10 -19 -19t-19 -17q-10 -8 -22 -15t-22 -13 q-12 -6 -24 -13t-24 -11q-14 -6 -30 -10t-30 -6q-16 -4 -31 -5t-27 -1h-928z" />
<glyph unicode="t" horiz-adv-x="1148" d="M44 850l54 204h204l62 228h490l-62 -228h386l-54 -204h-386l-158 -588q-2 -4 -2 -10t-2 -10q2 -4 3 -10t3 -8q2 -4 6 -7t8 -5q12 -6 30 -6h352l-56 -204h-640q-20 0 -39 2t-35 6t-30 11t-26 15q-8 6 -15 14t-13 16q-8 8 -14 16t-10 18q-2 10 -6 22t-6 24t-3 25t-1 25 q2 10 2 19t2 19l5 20l5 20l154 576h-208z" />
<glyph unicode="u" horiz-adv-x="1464" d="M22 204v28t2 28q2 30 10 58l198 738h480l-212 -792q-2 -4 -2 -10t2 -10l4 -12t4 -8q4 -4 9 -7t9 -5q4 -4 9 -5t11 -1h218q4 0 10 1t10 3q8 2 14 5t10 7q4 2 9 7l9 9t7 10l5 10l212 796h486l-282 -1054h-1022q-16 0 -32 1t-30 5q-14 2 -27 8t-23 12q-12 6 -22 14t-18 18 q-8 8 -15 20t-13 22q-8 10 -13 23t-7 25q-4 14 -7 28t-3 28z" />
<glyph unicode="v" horiz-adv-x="1380" d="M122 1056h528l94 -788l504 788h210l-680 -1056h-516z" />
<glyph unicode="w" horiz-adv-x="1992" d="M124 0l20 1052h488l-4 -670l336 670h560l-14 -674l350 674h178l-518 -1052h-506l22 804l-406 -804h-506z" />
<glyph unicode="x" horiz-adv-x="1506" d="M-136 0l600 448l-286 606h622l120 -266l340 268h314l-576 -432l296 -624h-630l-128 282l-388 -282h-284z" />
<glyph unicode="y" horiz-adv-x="1442" d="M-42 -392l52 204h672q8 0 17 1t15 3q6 4 14 8t14 6q2 4 8 9t8 9q4 4 7 10t5 12l36 130h-522q-18 0 -35 2t-31 6q-14 2 -28 9t-26 15t-22 18t-18 20q-10 10 -18 23t-12 27q-4 8 -8 20t-4 24q-4 12 -6 25t-2 25v26t2 28q4 14 6 28t6 30l196 730h484l-210 -784q-2 -4 -2 -10 v-10q0 -6 3 -12t5 -8q0 -6 5 -11t9 -7q12 -6 20 -6h218q6 0 11 1t9 3t9 7l9 9q4 2 8 8t6 10q2 6 5 11t3 9l210 784h480l-320 -1194q-2 -8 -6 -20t-10 -22q-4 -10 -9 -22t-11 -22t-15 -21t-15 -21l-18 -18t-18 -20q-8 -8 -19 -17t-21 -15q-12 -8 -24 -15t-24 -13 q-12 -4 -25 -9t-25 -7q-14 -2 -29 -4t-29 -2h-990z" />
<glyph unicode="z" horiz-adv-x="1386" d="M-108 0l798 848h-524l54 204h1236l-778 -840h558l-58 -212h-1286z" />
<glyph unicode="{" horiz-adv-x="894" d="M20 618l234 206l80 300q4 12 9 26t13 28q6 14 15 28t19 26q10 14 21 27t23 25t26 25t28 25q12 10 26 20l28 20q14 8 30 17t30 15t30 12t28 10q14 2 29 5t29 3h356l-58 -216h-190q-8 0 -17 -3t-17 -5q-10 -4 -19 -11t-17 -13t-16 -14t-12 -16q-6 -10 -11 -18t-7 -16 l-80 -300l-234 -206l124 -204l-88 -330q-2 -8 -2 -17t2 -17q2 -10 5 -17t9 -13q4 -6 10 -12t14 -8t16 -5t16 -3h186l-58 -216h-324q-18 0 -35 3t-33 7q-16 6 -33 14t-33 16q-12 6 -24 15t-22 17q-10 10 -19 21t-15 21t-13 21t-13 21q-4 10 -8 22t-8 22q-2 10 -4 21t0 23 q0 12 1 24t5 24l92 346z" />
<glyph unicode="|" horiz-adv-x="346" d="M-74 0l382 1436h214l-384 -1436h-212z" />
<glyph unicode="}" horiz-adv-x="894" d="M-204 -224l58 216h182q6 0 16 3t18 5q10 2 20 8t18 12q6 6 15 13t15 17q6 8 11 17t7 17l88 330l236 204l-126 206l80 300q4 8 3 16t-1 16q-2 8 -6 17t-8 15t-10 12t-12 10t-14 7t-16 3h-190l58 216h356q12 0 26 -3t26 -5q14 -4 26 -10t22 -12t22 -14t20 -16q10 -8 19 -20 t17 -22l12 -24l12 -24t10 -26t6 -28q2 -12 4 -26t2 -28q-2 -14 -3 -28t-3 -26l-82 -300l126 -206l-236 -204l-92 -346q-6 -24 -18 -48q-8 -12 -16 -23t-18 -21q-6 -10 -16 -22t-20 -22q-12 -10 -24 -21t-24 -21q-14 -10 -29 -20t-29 -20q-16 -8 -32 -18t-32 -16 q-18 -8 -39 -16t-41 -12q-18 -6 -38 -9t-36 -3h-320z" />
<glyph unicode="~" horiz-adv-x="1110" d="M174 524q16 24 33 46t33 38q18 16 36 31t36 25t36 19t34 13q18 4 38 8t38 4q12 0 24 -2l24 -4l24 -8t22 -6q12 -4 24 -10t24 -10q10 -6 22 -13t22 -13t23 -12t23 -12t22 -13t24 -11q10 -4 23 -10t23 -8q12 -4 26 -7t24 -5h19t17 4q10 2 20 8t16 10q10 6 19 13t17 13 t17 14t17 14l84 -112q-26 -28 -50 -52t-42 -40t-36 -31t-32 -23q-14 -10 -29 -16t-29 -8q-14 -4 -31 -6t-35 -2q-12 0 -25 1t-23 5q-12 2 -24 7t-22 9t-23 10t-23 12t-22 13t-24 13q-10 6 -22 13t-22 13t-23 13t-23 11t-23 8t-25 8q-12 2 -26 5t-28 3q-8 0 -16 -2t-18 -4 q-8 -4 -19 -9t-19 -9q-8 -6 -18 -13t-18 -13q-6 -6 -15 -14t-17 -14z" />
<glyph unicode="&#xa1;" horiz-adv-x="630" d="M-76 0l158 602l148 370h394l-62 -398l-154 -574h-484zM202 1054l102 380h488l-102 -380h-488z" />
<glyph unicode="&#xa2;" horiz-adv-x="1056" d="M54 454q2 10 3 22t3 20q2 10 3 21t3 21l100 368q2 12 7 24t9 24t12 26t14 26t15 24t19 24q8 12 19 23t23 21q8 8 19 16t23 14q10 6 22 13t26 11q10 2 20 5t20 5t21 3t23 1h158l58 224h176l-60 -224h336l-48 -174h-406q-6 0 -13 -2t-15 -4q-6 -4 -14 -8t-14 -8t-12 -10 l-12 -12q-4 -6 -8 -13t-6 -13l-106 -398q-2 -6 -1 -13t1 -11q2 -6 6 -12t6 -10q6 -4 11 -9t9 -7q6 -4 14 -5t14 -1h404l-48 -174h-336l-62 -232h-176l64 232h-144q-16 0 -32 1t-28 5q-14 2 -26 9t-22 13t-18 13t-14 15q-8 8 -14 19t-10 19t-7 18t-3 20q-2 8 -4 20t-2 20z " />
<glyph unicode="&#xa3;" horiz-adv-x="1338" d="M-66 2l164 622h-102l48 182h104l102 380q2 10 6 22t6 22q6 10 11 22t9 22q6 10 13 22t13 20t15 18t17 20q8 8 19 17t21 15q12 8 25 15t27 11l28 8t30 8q16 2 35 4t37 2h634q8 0 19 -2t19 -4q8 -4 17 -8t17 -8q8 -6 16 -13t14 -13q8 -8 14 -17t10 -17q4 -10 9 -21t7 -19 q4 -10 7 -21t3 -19q2 -10 3 -22t-1 -22q0 -10 -2 -21t-4 -21l-42 -154h-372l28 102v8v10q-2 4 -4 9t-6 9l-9 9t-11 9q-8 2 -15 5t-15 3h-66q-6 0 -14 -1t-16 -3l-16 -8t-14 -8q-4 -4 -10 -9t-8 -9q-4 -6 -7 -12t-5 -12l-88 -328h102l-48 -176h-102l-106 -396h646l-62 -232 h-1150z" />
<glyph unicode="&#xa4;" horiz-adv-x="1274" d="M16 10v454h202q26 0 48 -8t40 -21t33 -32t25 -41q16 -34 22 -63t5 -58t-8 -57t-19 -60q-16 -52 -55 -82t-93 -32h-50h-50h-49h-51zM78 62q32 0 63 -4t58 -2t50 13t41 41q20 30 32 68t11 77t-16 75t-45 58q-22 16 -45 21t-47 6t-49 -1t-53 -2v-350zM438 232q0 48 13 89 t43 79q20 24 38 38t39 22t44 11t53 3q26 -2 50 -7t44 -16t37 -29t29 -42q6 -12 11 -27t5 -27h-28h-28q-6 18 -10 31t-11 23t-19 16t-36 14q-18 6 -36 10t-37 2t-36 -9t-35 -21q-16 -10 -28 -26t-21 -36t-15 -41t-8 -44t0 -45t8 -43t17 -39t27 -30q22 -22 49 -33t56 -10 t56 12t49 33q12 12 19 24t12 24t6 27t1 33h-140v52h196v-240h-38l-16 58q-8 -10 -18 -20t-20 -18t-21 -14t-27 -8q-16 -4 -30 -6t-28 -2t-29 1t-31 3q-38 6 -66 23t-50 49q-20 36 -30 75t-10 81zM922 10v454h60v-400h232v-54h-292z" />
<glyph unicode="&#xa5;" horiz-adv-x="1622" d="M78 398l50 184h350l-56 174h-250l50 188l138 -2l-164 494h592l200 -590l492 590h258l-416 -496l146 2l-50 -188h-252l-146 -174h352l-48 -182h-380l-106 -398h-500l106 398h-366z" />
<glyph unicode="&#xa7;" horiz-adv-x="1298" d="M-56 -394l56 206h660q2 0 8 1t10 3q8 2 14 4t10 4q4 4 9 8t9 6q4 4 7 9t3 7l38 142q2 4 2 6t-2 6q-2 2 -5 6t-5 8q-2 2 -5 6t-7 4q-6 2 -11 3t-7 1h-496q-22 0 -43 5t-41 13t-37 22t-29 30q-22 30 -28 72q-4 20 -2 45t8 53l80 300q6 16 13 34t17 36t24 35t28 33 q12 12 25 22t27 18t32 14t34 10q-10 2 -22 7t-22 11t-19 13t-15 15q-10 10 -16 23t-10 27t-4 28t4 30l78 290q6 20 15 41t23 39q12 18 27 34t31 30q10 8 22 16t22 14q12 6 25 12t23 10q12 4 25 8t23 6t22 3t22 1h836l-56 -206h-666q-4 0 -9 -1t-9 -1q-6 -2 -13 -5t-13 -5 q-2 -2 -7 -6t-9 -6q-4 -4 -7 -9t-5 -9l-24 -94q-2 -6 -2 -12v-10q2 -4 4 -10t4 -8q2 -4 7 -6t7 -4q4 -2 9 -3t9 -1h492q10 0 21 -1t23 -3t23 -5t21 -5q10 -4 19 -9t17 -11t17 -13t15 -15q10 -12 17 -29t11 -35q6 -40 -8 -94l-74 -274q-2 -10 -6 -21t-6 -21q-4 -10 -9 -22 t-9 -20q-4 -10 -11 -21t-11 -19q-6 -10 -14 -21t-18 -19q-10 -10 -22 -20t-26 -18q-12 -8 -29 -18t-33 -16q16 -8 28 -20t20 -22q10 -12 17 -25t11 -25q6 -12 8 -26t0 -28q0 -16 -2 -31t-6 -29l-68 -250q-6 -26 -17 -52t-27 -48q-14 -22 -33 -42t-35 -36q-20 -16 -41 -29 t-41 -23q-22 -8 -44 -13t-44 -5h-832zM444 456q0 -4 3 -10t5 -8q2 -4 5 -7t7 -5t10 -3t10 -1h342q6 0 12 1t10 3q6 2 11 4t9 6q4 2 9 8t7 10l5 10t5 12l34 124q0 6 1 11t-1 9q0 4 -1 9t-3 9q-2 2 -7 6t-9 6t-9 3t-11 1h-342q-4 0 -10 -1t-10 -3l-10 -5l-10 -5l-9 -9t-7 -9 q-4 -4 -7 -10t-3 -12l-34 -124q-2 -6 -2 -12v-8z" />
<glyph unicode="&#xa8;" horiz-adv-x="804" d="M-90 1202l76 290h348l-76 -290h-348zM374 1202l78 290h352l-76 -290h-354z" />
<glyph unicode="&#xa9;" horiz-adv-x="1578" d="M106 522q-2 34 0 66q4 32 9 68t15 70q8 34 22 69t28 69q16 32 36 65t38 63q22 30 46 59t50 57q26 26 54 53t58 49q28 24 59 45t63 39t67 35t67 29q34 12 70 23t70 17t70 10t72 4t69 -4t65 -10t62 -17t56 -23q28 -12 53 -28t47 -34t43 -40t37 -46q16 -22 30 -48t24 -52 q12 -28 21 -57t13 -59q6 -30 8 -64t-2 -66q-2 -34 -8 -69t-14 -69q-10 -34 -23 -70t-29 -68q-14 -32 -34 -65t-40 -63t-45 -60t-49 -56q-26 -28 -55 -54t-57 -50q-30 -22 -61 -43t-63 -39t-66 -35t-68 -29q-32 -12 -68 -23t-70 -17t-71 -10t-73 -4q-34 0 -67 4t-65 10 t-62 17t-58 23q-26 12 -51 28t-49 34q-22 18 -42 40t-36 44q-18 24 -32 49t-26 53q-10 26 -19 56t-13 60t-6 64zM311 574q1 -24 5 -44q2 -22 8 -43t14 -39q8 -20 19 -39t21 -33q12 -16 27 -32t29 -28q16 -12 35 -24t37 -20q18 -10 39 -18t43 -12t47 -7t51 -3q24 0 49 3t51 7 t50 11t48 17q22 8 47 21t47 25t46 28t44 32q20 14 41 33t37 37q18 20 35 41t33 43q14 20 28 44t26 48q10 24 20 49t16 49t10 49t6 49t1 47t-3 45q-4 22 -11 43t-15 39q-6 20 -17 38t-23 34t-27 32t-29 28q-16 14 -33 26t-37 20q-18 8 -40 16t-44 12t-47 7t-49 3t-50 -3 t-50 -7q-26 -4 -51 -12t-49 -16t-48 -20t-46 -24q-22 -14 -45 -30t-45 -32q-18 -16 -39 -34t-37 -36q-20 -20 -37 -41t-33 -43q-14 -22 -27 -45t-25 -47q-10 -24 -20 -49t-16 -49t-10 -49t-6 -49t-1 -48zM464 482v14t2 14q2 8 3 16t3 18l96 352q4 14 11 30t15 32q4 8 9 16 t9 14t11 13l13 13q10 8 22 17t24 15q32 18 62 18h402l-30 -114h-260q-4 0 -7 -1t-5 -1l-8 -4t-6 -4q-4 -4 -8 -7t-4 -5q-2 -4 -4 -7t-4 -5l-104 -390v-7v-5q2 -4 4 -7t4 -5q0 -2 3 -4t5 -2q2 -2 6 -3t8 -1h268l-32 -114h-402q-14 0 -29 4t-29 10q-4 2 -9 7t-11 9 q-10 10 -16 22q-2 4 -4 10l-4 12t-3 14t-1 16z" />
<glyph unicode="&#xad;" horiz-adv-x="1194" d="M54 428l56 210h135h131h132h130h130h130h133h135l-56 -210h-264h-264h-264h-264z" />
<glyph unicode="&#xae;" horiz-adv-x="1578" d="M106 522q-2 34 0 66q4 32 9 68t15 70q8 34 22 69t28 69q16 32 36 65t38 63q22 30 46 59t50 57q26 26 54 53t58 49q28 24 59 45t63 39t67 35t69 29q32 12 68 23t70 17t70 10t72 4t69 -4t65 -10t62 -17t56 -23q28 -12 53 -28t47 -34t43 -40t37 -46q16 -22 30 -48t24 -52 q12 -28 21 -57t13 -59t7 -64t-1 -66q-2 -34 -8 -69t-14 -69q-10 -34 -23 -70t-29 -68q-14 -32 -34 -65t-40 -63t-45 -60t-49 -56q-26 -28 -55 -54t-57 -50q-30 -22 -61 -43t-63 -39t-66 -35t-68 -29q-32 -12 -68 -23t-70 -17q-36 -6 -72 -10t-72 -4q-34 0 -67 4t-65 10 t-62 17t-58 23q-26 12 -51 28t-49 34q-22 18 -42 40t-36 44q-18 24 -32 49t-26 53q-10 26 -19 56t-13 60t-6 64zM311 580q1 -24 3 -44q4 -22 11 -43l13 -39q8 -20 19 -39t23 -33q12 -16 26 -32t30 -28t34 -24t36 -20q18 -10 39 -18t45 -12q22 -4 47 -7t49 -3t50 3t50 7 q26 4 51 12t49 16q22 8 47 21t47 25t45 28t45 32q18 14 39 33t37 37q18 20 36 41t32 43q16 20 29 44t25 48q10 24 20 49t16 49t10 49t6 49t1 47t-5 45q-2 20 -8 42t-14 40q-8 20 -19 38t-21 34q-12 16 -27 32t-29 28q-16 12 -35 23t-37 21q-18 8 -40 17t-42 13q-24 4 -48 7 t-50 3q-24 0 -49 -3t-51 -7t-50 -12l-48 -16q-24 -10 -48 -22t-46 -24t-46 -28t-44 -32t-41 -34t-39 -36q-16 -20 -33 -42t-33 -42q-14 -22 -29 -45t-25 -47t-20 -49t-16 -49t-10 -49t-6 -49t-1 -48zM426 386l182 680h442q18 0 32 -3t22 -5q12 -4 20 -13t10 -17q6 -10 8 -22 t2 -28q-2 -6 -2 -13t-2 -13t-3 -14t-3 -16l-38 -140q0 -4 -2 -10t-2 -10l-5 -10l-5 -10t-4 -10t-4 -8q-4 -4 -8 -10t-8 -8q-4 -6 -12 -10q-4 -4 -9 -6t-7 -4q-4 0 -10 -2t-10 -2t-11 -1t-13 -1l38 -294h-228l-18 294h-66l-80 -294h-206zM744 794h128q6 0 11 2t9 6q0 2 2 4 t2 6q2 2 4 6t2 8l28 104q2 2 1 5t1 5q0 2 -2 5t-2 5l-2 1t-4 1t-5 1t-5 1h-126z" />
<glyph unicode="&#xb4;" horiz-adv-x="616" d="M-120 1192l412 328h340l-438 -328h-314z" />
<glyph unicode="&#xb6;" horiz-adv-x="1166" d="M110 864q-16 78 12 180q12 50 32 94t44 80q26 38 57 69t65 55q32 24 71 43t81 31t85 18t87 6h714l-490 -1828h-238l276 1028h-198l-278 -1034h-244l278 1034q-46 0 -89 5t-79 17q-40 12 -71 32t-53 44q-24 24 -40 56t-22 70z" />
<glyph unicode="&#xb7;" horiz-adv-x="708" d="M343 686q1 16 5 32q8 34 30 64q10 16 23 29t27 23q12 10 28 19t32 15t34 10t34 4t32 -3t28 -9q14 -6 25 -16t19 -20q6 -10 12 -23t8 -29t1 -32t-5 -32t-12 -32t-18 -32t-23 -29t-27 -23q-12 -12 -28 -21t-32 -15q-18 -6 -35 -10t-33 -4t-32 3t-30 9q-12 6 -23 16t-19 22 q-6 10 -12 23t-8 29t-1 32z" />
<glyph unicode="&#xb8;" horiz-adv-x="600" d="M88 -530l22 80h188q2 0 6 1t6 1q4 2 8 5t8 5q2 2 6 5t4 5q2 2 4 6t4 6l48 184q2 2 1 5t-3 5q0 4 -2 6t-2 4q-2 4 -5 6t-5 2q-4 0 -6 1t-6 1h-188l22 82h48l106 120h138l-104 -122h116q8 0 15 -1t13 -1q4 -2 11 -4t9 -6q6 -2 11 -5t7 -7q2 -2 5 -8l5 -10q4 -8 5 -17t1 -19 q0 -8 -2 -19t-4 -21l-44 -168l-4 -12l-4 -12q0 -6 -4 -12l-8 -12q-2 -4 -6 -10t-10 -10q-4 -6 -9 -12t-9 -10q-4 -2 -10 -6t-10 -8l-10 -5t-14 -5q-2 -2 -8 -4t-8 -2q-6 0 -11 -1t-11 -1h-310z" />
<glyph unicode="&#xbc;" horiz-adv-x="2390" d="M164 578l160 596h-110l40 152l366 110h70l-230 -858h-296zM348 0l1126 1436h288l-1132 -1436h-282zM1182 192l56 212l594 454h348l-120 -442h138l-60 -224h-138l-52 -192h-290l52 192h-528zM1462 420h306l76 284z" />
<glyph unicode="&#xbd;" horiz-adv-x="2390" d="M164 578l160 596h-110l42 152l364 110h70l-230 -858h-296zM348 0l1126 1436h288l-1132 -1436h-282zM1268 0h794l38 142h-496l32 122q2 6 5 12t7 10q2 2 7 6t9 8q4 2 9 4t11 2q4 0 10 1t12 1l348 18q6 0 14 1t14 5q8 2 16 5t14 7q6 2 12 6l12 8q4 2 9 8t9 10q4 2 8 8 t10 10q4 4 8 10t6 12q2 4 6 10t6 12q0 6 3 13t5 13l62 230q2 8 3 16t3 16t2 16t-2 14q0 8 -2 16t-6 16q0 6 -4 13t-8 11q-6 6 -11 12t-11 10q-8 4 -15 8t-15 8q-8 2 -16 5t-16 3q-10 0 -18 1t-16 1h-620l-38 -142h468q2 0 4 -1t6 -1q2 0 5 -1t7 -1l2 -2l4 -4q2 -4 0 -10 l-22 -84q0 -4 -2 -7t-6 -5q-2 -4 -5 -6t-5 -4q-4 -2 -7 -5t-7 -5q-4 0 -7 -1t-5 -1l-376 -20q-6 0 -14 -1t-16 -3q-6 0 -12 -2t-10 -4q-8 -2 -16 -7t-14 -9q-4 -4 -10 -9t-10 -9t-9 -10t-9 -12q-2 -6 -6 -12t-6 -12l-8 -16t-6 -16t-5 -16t-5 -16z" />
<glyph unicode="&#xbe;" horiz-adv-x="2390" d="M-46 578l38 142h420q4 0 7 1l3 1q8 4 14 10q4 2 7 4t3 6q2 2 3 5t1 5l46 164q0 2 -1 4t1 4q-2 2 -4 5t-2 5q-4 0 -6 2t-4 2q-2 2 -5 3t-5 1h-298l38 140h296q2 0 5 1t5 1t6 2l8 4q2 2 5 4t3 4l4 4t2 6l42 158q2 2 1 5t1 5q-2 2 -3 5t-3 5l-4 4t-4 2q-4 0 -6 1t-6 1h-420 l38 140h582h16h16t16 -2l16 -4t15 -5t13 -5q6 -4 12 -9t10 -9t8 -9t6 -9q4 -4 6 -11t4 -13q0 -6 1 -13t-1 -15q0 -8 -2 -18t-4 -18l-48 -180q-2 -10 -8 -20t-10 -18q-6 -8 -15 -15t-19 -13q-6 -4 -14 -9t-16 -7l-18 -9t-20 -7q10 -2 19 -6t15 -8q8 -4 14 -11t8 -15 q6 -6 8 -15t2 -17v-21t-2 -21l-52 -192q-2 -8 -5 -15t-5 -13t-7 -13t-7 -13q-8 -10 -18 -21t-20 -19q-4 -4 -11 -9t-13 -7q-6 -4 -13 -7t-11 -5q-14 -4 -28 -7t-26 -3h-620zM348 0l1126 1436h288l-1132 -1436h-282zM1182 192l56 212l594 454h348l-118 -442h136l-60 -224 h-138l-52 -192h-290l52 192h-528zM1462 420h306l76 284z" />
<glyph unicode="&#xbf;" horiz-adv-x="1416" d="M-58 202v24t4 24l70 272q4 8 8 19t8 21q6 10 13 22t15 22q4 8 13 19t17 21q8 8 18 19t20 19q8 8 19 17t23 15q10 8 21 15t21 11q10 6 22 10l24 8q8 2 20 4t20 2h210q6 0 15 1t17 3q10 2 19 6t17 8l15 10t15 12t11 14t5 14l36 130h502l-56 -210q-4 -8 -7 -19t-7 -19 q-4 -10 -11 -21t-13 -19q-4 -8 -13 -20l-15 -20q-8 -10 -18 -19t-18 -17t-18 -16t-20 -14q-10 -8 -20 -15t-20 -11t-20 -9t-20 -7q-10 -4 -20 -5t-18 -1h-250q-6 0 -14 -1t-14 -3q-6 -4 -15 -8t-15 -8t-13 -9t-11 -9q-6 -6 -10 -12t-6 -12l-52 -200q-2 -6 -1 -12t3 -10 t6 -10t10 -8q6 -4 13 -7t11 -5q6 -2 14 -3t14 -1h696l-54 -204h-1014q-12 0 -23 1t-23 5q-10 2 -21 7t-19 9q-12 4 -21 11t-17 13l-16 16l-16 16q-6 8 -12 18l-12 20t-10 21t-6 21q-4 10 -5 22t-1 22zM700 1060l100 376h486l-100 -376h-486z" />
<glyph unicode="&#xc0;" horiz-adv-x="1760" d="M-244 0l1018 1430h502l160 -1430h-536l-46 380h-582l-274 -380h-242zM442 620h394l-64 488zM722 1804h340l238 -330h-318z" />
<glyph unicode="&#xc1;" horiz-adv-x="1760" d="M-244 0l1018 1430h502l160 -1430h-536l-46 380h-582l-274 -380h-242zM442 620h394l-64 488zM766 1474l420 330h340l-442 -330h-318z" />
<glyph unicode="&#xc2;" horiz-adv-x="1760" d="M-244 0l1018 1430h502l160 -1430h-536l-46 380h-582l-274 -380h-242zM442 620h394l-64 488zM620 1480l332 324h350l156 -324h-318l-58 166l-162 -166h-300z" />
<glyph unicode="&#xc3;" horiz-adv-x="1760" d="M-242 0l1016 1430h502l162 -1430h-536l-46 380h-582l-274 -380h-242zM444 620h394l-64 488zM628 1478q2 12 8 25t10 25q8 12 15 26l13 26q8 14 17 28t19 26q8 12 20 25t22 25q12 12 24 23t22 21q12 8 26 18t26 16q14 8 29 14t27 10q14 2 30 5t30 3q20 0 40 -3t38 -9 q20 -6 40 -13t38 -15t37 -15t35 -13t32 -11t32 -7q12 0 25 5t25 17q14 12 26 28t22 36h164q-4 -12 -10 -26t-10 -26q-4 -14 -11 -28l-13 -26t-14 -25t-14 -25q-8 -12 -17 -25t-17 -21q-8 -10 -19 -21t-21 -19q-12 -10 -24 -17t-24 -13q-14 -6 -29 -12t-31 -8q-16 -4 -35 -6 t-37 -2q-10 0 -21 1t-21 1l-20 4t-20 6q-8 2 -19 5t-21 7q-10 2 -20 6l-20 8q-10 2 -20 8t-18 8t-17 6t-15 8q-8 2 -16 5t-14 5t-13 3t-11 1q-8 0 -17 -2t-15 -4q-8 -4 -16 -11t-14 -13q-8 -8 -16 -17t-14 -17q-4 -8 -11 -17t-9 -17h-168z" />
<glyph unicode="&#xc4;" horiz-adv-x="1760" d="M-240 0l1018 1430h502l160 -1430h-536l-46 380h-582l-276 -380h-240zM446 620h394l-62 488zM624 1480l76 290h352l-76 -290h-352zM1096 1480l76 290h350l-76 -290h-350z" />
<glyph unicode="&#xc5;" horiz-adv-x="1760" d="M-248 0l1016 1430h502l160 -1430h-536l-46 380h-582l-274 -380h-240zM438 620h394l-64 488zM890 1590q0 16 1 35t5 37t13 37t19 33q12 16 26 31t28 27q16 12 34 23t36 17t37 10t37 4t35 -4t31 -10q16 -6 28 -16t20 -22q10 -12 16 -28t8 -30q2 -16 1 -35t-5 -37t-13 -36 t-19 -34q-12 -16 -26 -31t-30 -27t-33 -22t-35 -16q-18 -8 -37 -12t-37 -4t-36 4t-32 10q-14 8 -26 18t-20 22q-10 12 -17 26t-9 30zM989 1644q-1 -8 1 -14q0 -8 3 -15t7 -13t10 -11t12 -7q8 -4 16 -5t18 -1q8 0 17 1t17 5q8 2 16 7t16 11t14 13t10 13q6 8 10 16t6 18 q2 8 3 17t-1 15q0 8 -3 15t-7 13t-10 10l-12 8q-6 2 -14 5t-16 3q-10 0 -19 -2t-17 -4q-8 -4 -17 -9t-15 -11q-8 -6 -14 -13t-10 -13q-6 -8 -11 -17t-7 -17q-2 -10 -3 -18z" />
<glyph unicode="&#xc6;" horiz-adv-x="2104" d="M-254 0l1172 1434h1264l-62 -232h-600l-92 -344h584l-62 -234h-584l-106 -390h614l-62 -232h-1120l104 378h-488l-294 -380h-268zM480 618h380l168 630z" />
<glyph unicode="&#xc7;" horiz-adv-x="1290" d="M42 216q2 14 2 29t2 31t5 33t7 35l198 740l12 36t12 32t14 30l16 32q10 16 21 33t21 31q12 14 25 28t25 26q12 10 23 20t23 20q12 8 25 16t25 14q16 8 33 15t31 11q18 4 36 7t34 3h842l-64 -236h-548q-12 0 -24 -6q-8 -4 -16 -9t-14 -9q-16 -12 -24 -24q-4 -6 -8 -13 t-6 -13l-220 -820q-2 -12 0 -24q2 -6 6 -13t8 -11t10 -9t12 -7q6 -4 13 -5t13 -1h560l-64 -238h-450l-102 -120h124q8 0 17 -3t17 -7t14 -11t10 -15t8 -19t6 -21v-23t-2 -21l-46 -172q-2 -8 -8 -20t-12 -22t-15 -20t-17 -20q-8 -8 -17 -15t-19 -11q-8 -4 -17 -7t-19 -3h-322 l22 80h196l3 1t5 1q4 2 7 4t5 4t5 4t3 4q2 4 4 6t2 4l52 194q2 4 1 6t-1 4l-3 6t-3 4q-2 0 -5 2t-5 2q-4 0 -8 1t-6 1h-184l20 82h48l102 120h-254q-16 0 -33 1t-31 5q-16 2 -30 9t-28 13q-10 6 -21 14t-21 18q-10 8 -19 21t-15 25q-4 10 -9 23t-7 27q-4 14 -6 29t-2 31z " />
<glyph unicode="&#xc8;" horiz-adv-x="1284" d="M-136 2l382 1432h1106l-62 -232h-600l-92 -344h584l-64 -234h-584l-104 -390h614l-62 -232h-1118zM580 1810h340l242 -330h-318z" />
<glyph unicode="&#xc9;" horiz-adv-x="1284" d="M-136 2l382 1432h1106l-62 -232h-600l-92 -344h584l-64 -234h-584l-104 -390h614l-62 -232h-1118zM492 1480l418 330h340l-440 -330h-318z" />
<glyph unicode="&#xca;" horiz-adv-x="1284" d="M-136 2l382 1432h1106l-62 -232h-600l-92 -344h584l-62 -234h-584l-106 -390h614l-62 -232h-1118zM422 1480l332 324h350l156 -324h-316l-58 166l-164 -166h-300z" />
<glyph unicode="&#xcb;" horiz-adv-x="1284" d="M-130 2l380 1432h1106l-62 -232h-600l-92 -344h584l-62 -234h-584l-104 -390h614l-62 -232h-1118zM404 1480l76 290h352l-76 -290h-352zM874 1480l76 290h350l-76 -290h-350z" />
<glyph unicode="&#xcc;" horiz-adv-x="782" d="M-98 0l380 1430l506 4l-384 -1434h-502zM320 1810h340l240 -330h-318z" />
<glyph unicode="&#xcd;" horiz-adv-x="782" d="M-98 0l380 1430l506 4l-384 -1434h-502zM232 1480l416 330h340l-438 -330h-318z" />
<glyph unicode="&#xce;" horiz-adv-x="858" d="M-98 0l382 1430l504 4l-384 -1434h-502zM138 1480l328 324h350l156 -324h-318l-56 166l-164 -166h-296z" />
<glyph unicode="&#xcf;" horiz-adv-x="844" d="M-94 0l382 1430l504 4l-384 -1434h-502zM146 1480l78 290h348l-76 -290h-350zM614 1480l76 290h350l-76 -290h-350z" />
<glyph unicode="&#xd0;" horiz-adv-x="1538" d="M-86 2l164 620h-122l62 238h124l154 574h1036q14 0 29 -1t27 -3q16 -2 29 -6t27 -6q16 -4 31 -13t29 -17q14 -10 26 -22t20 -26q6 -10 13 -24t9 -28q6 -14 9 -31t3 -35q-2 -14 -2 -30t-2 -30q-2 -16 -5 -34t-9 -36l-198 -744l-12 -36t-12 -34t-14 -32t-14 -30 q-10 -18 -21 -34t-21 -30t-24 -28t-26 -24q-12 -12 -26 -23t-28 -19q-16 -10 -31 -17t-29 -11q-20 -8 -41 -14t-39 -8q-18 -4 -39 -5t-39 -1h-1038zM480 234h292q6 0 13 3t11 5q8 2 15 8t11 12q4 4 10 11t8 13q6 6 9 13t5 13l222 830v10t-2 10q0 4 -3 9t-7 9q-2 2 -7 6t-9 6 q-12 6 -22 6h-288l-90 -336h192l-64 -240h-192z" />
<glyph unicode="&#xd1;" horiz-adv-x="1606" d="M-130 4l382 1432h654l230 -1172l314 1172h224l-384 -1432h-654l-232 1194l-320 -1194h-214zM576 1478q4 12 10 25t10 25t12 26t14 26q8 14 18 28t18 26q10 12 21 25t21 25t23 23t25 21q12 8 26 18t24 16q14 8 29 14t29 10q12 2 27 5t31 3q42 0 80 -12q20 -6 39 -13 t37 -15q20 -8 37 -15t35 -13q16 -6 33 -11t31 -7q14 0 27 5t25 17t25 28t23 36h164q-6 -12 -12 -26t-10 -26l-12 -28t-12 -26t-13 -25t-13 -25q-8 -12 -17 -25t-17 -21l-21 -21t-21 -19q-22 -18 -50 -30q-12 -6 -27 -12t-31 -8q-16 -4 -34 -6t-38 -2q-8 0 -19 1t-21 1 q-10 2 -21 4t-21 6q-10 2 -20 5t-20 7q-10 2 -20 6t-18 8q-10 2 -20 8t-18 8t-17 6t-15 8q-8 2 -16 5t-14 5q-8 2 -14 3t-12 1q-8 0 -17 -2t-15 -4q-8 -4 -16 -11t-16 -13q-6 -8 -14 -17t-14 -17t-12 -17t-8 -17h-168z" />
<glyph unicode="&#xd2;" horiz-adv-x="1586" d="M-68 208q-2 16 0 32v29t4 31q2 14 5 29t5 29l188 708q6 20 13 42t13 40q8 18 17 36l17 34q8 18 20 34t22 32t23 29t25 23q12 12 26 22l28 20q14 8 29 16t29 14q18 6 38 11t40 9q18 2 39 5t39 3h782q36 0 68 -6q18 -4 33 -9t27 -11q14 -6 28 -15t24 -17q10 -10 20 -25 t16 -29t11 -30t7 -34q4 -18 5 -40t-1 -44q0 -14 -3 -32t-7 -36t-8 -39t-10 -41l-164 -616q-6 -22 -13 -44t-15 -42q-6 -20 -15 -39t-17 -37q-8 -22 -20 -41t-24 -37q-14 -18 -28 -35t-26 -31q-22 -22 -48 -40t-50 -30q-16 -8 -34 -15t-36 -9t-37 -5t-39 -3h-840q-16 0 -32 1 t-28 5q-14 2 -27 8t-23 12q-14 8 -26 18t-20 22q-10 12 -18 25t-14 29q-4 12 -8 26t-6 28t-4 30zM429 297q1 -7 1 -13q2 -6 6 -13t6 -11q6 -4 12 -9t10 -7q6 -4 13 -6t13 -2h268q6 0 14 2t14 6q8 2 16 8t14 12q6 4 12 11t10 13t8 14t6 14l216 806q2 6 2 14v14q-2 6 -5 13 t-7 11l-9 9t-11 7t-12 5t-12 3h-256q-10 0 -19 -2t-17 -4q-8 -4 -17 -9t-15 -9q-8 -6 -16 -15t-14 -17q-4 -10 -9 -20l-9 -18l-212 -794q-2 -6 -1 -13zM692 1810h342l240 -330h-318z" />
<glyph unicode="&#xd3;" horiz-adv-x="1586" d="M-68 208q-2 16 0 32v29t4 31q2 14 5 29t7 29l186 708q6 20 13 42t13 40q8 18 17 36l17 34q8 18 19 34t21 32q12 16 24 29t24 23q12 12 27 22t29 20q14 8 29 16t29 14q18 6 38 11t40 9q18 2 39 5t39 3h782q36 0 68 -6q18 -4 33 -9t27 -11q14 -6 28 -15t24 -17 q10 -10 20 -25t16 -29t11 -30t7 -34q4 -18 5 -40t-1 -44q0 -14 -3 -32t-7 -36t-8 -39t-10 -41l-164 -616q-6 -22 -13 -44t-15 -42q-6 -20 -15 -39t-17 -37q-8 -22 -20 -41t-24 -37q-14 -18 -28 -35t-26 -31q-22 -22 -48 -40t-50 -30q-16 -8 -34 -15t-36 -9t-37 -5t-39 -3 h-840q-16 0 -32 1t-28 5q-14 2 -27 8t-23 12q-14 8 -26 18t-20 22t-17 25t-15 29q-4 12 -7 26t-7 28q-2 14 -4 30zM429 297q1 -7 3 -13q0 -6 4 -13t6 -11q6 -4 12 -9t10 -7q6 -4 13 -6t13 -2h268q6 0 14 2t14 6q8 2 16 8t14 12q6 4 12 11t10 13t8 14t6 14l216 806q2 6 2 14 v14q-2 6 -5 13t-7 11l-9 9t-11 7t-12 5t-12 3h-256q-10 0 -19 -2t-17 -4q-8 -4 -17 -9t-15 -9q-8 -6 -16 -15t-14 -17q-4 -10 -9 -20l-9 -18l-212 -794q-2 -6 -1 -13zM604 1480l418 330h340l-438 -330h-320z" />
<glyph unicode="&#xd4;" horiz-adv-x="1586" d="M-68 240q2 14 2 29t2 31q2 14 5 29t7 29l188 708q6 20 13 42t13 40q8 18 17 36t15 34q10 18 21 34t21 32q12 16 24 29t24 23q12 12 26 22t30 20q14 8 29 16t29 14q18 6 38 11t38 9q20 2 40 5t38 3h782q36 0 70 -6q16 -4 31 -9t29 -11t27 -15t25 -17q10 -10 19 -25t15 -29 t11 -30t9 -34q2 -18 3 -40t-1 -44q0 -14 -2 -32t-8 -36q-2 -18 -7 -39t-9 -41l-166 -616q-6 -22 -13 -44t-13 -42q-8 -20 -17 -39t-17 -37q-8 -22 -20 -41t-24 -37t-27 -35t-27 -31q-22 -22 -47 -40t-49 -30q-18 -8 -36 -15t-36 -9q-16 -2 -36 -5t-40 -3h-840q-16 0 -31 1 t-29 5q-14 2 -27 8t-23 12q-14 8 -25 18t-21 22q-8 12 -17 25t-13 29q-6 12 -9 26t-5 28t-4 30t-2 32zM430 297q0 -7 2 -13t5 -13t7 -11t10 -9t12 -7q4 -4 12 -6t14 -2h268q6 0 13 2t15 6q6 2 14 8t14 12q6 4 12 11t12 13q4 6 7 14t5 14l216 806q2 6 3 14t-1 14t-4 13t-8 11 q-2 4 -8 9t-12 7q-4 2 -11 5t-13 3h-256q-8 0 -18 -2t-16 -4q-10 -4 -18 -9t-16 -9q-8 -6 -15 -15t-13 -17q-6 -10 -11 -20t-7 -18l-214 -794v-13zM542 1480l330 324h350l156 -324h-316l-58 166l-162 -166h-300z" />
<glyph unicode="&#xd5;" horiz-adv-x="1586" d="M-66 208q-2 16 0 32q0 14 1 29t3 31q2 14 5 29t7 29l186 708q6 20 13 42t13 40q8 18 17 36l17 34q8 18 19 34t21 32q12 16 24 29t24 23q12 12 27 22t29 20q14 8 29 16t29 14q18 6 38 11t40 9q18 2 39 5t39 3h782q36 0 68 -6q18 -4 33 -9t27 -11q14 -6 28 -15t24 -17 q10 -10 20 -25t16 -29t11 -30t7 -34q4 -18 5 -40t-1 -44q0 -14 -3 -32t-7 -36t-8 -39t-10 -41l-164 -616q-6 -22 -13 -44t-15 -42q-6 -20 -15 -39t-17 -37q-8 -22 -20 -41t-24 -37q-14 -18 -28 -35t-26 -31q-22 -22 -48 -40t-50 -30q-16 -8 -34 -15t-36 -9t-37 -5t-39 -3 h-840q-16 0 -32 1t-28 5q-14 2 -27 8t-23 12q-14 8 -26 18t-20 22t-17 25t-15 29q-4 12 -7 26t-7 28q-2 14 -4 30zM431 297q1 -7 3 -13q0 -6 4 -13t6 -11q6 -4 12 -9t10 -7q6 -4 13 -6t13 -2h268q6 0 14 2t14 6q8 2 16 8t14 12q6 4 12 11t10 13t8 14t6 14l216 806q2 6 2 14 v14q-2 6 -5 13t-7 11l-9 9t-11 7t-12 5t-12 3h-256q-8 0 -18 -2t-18 -4q-8 -4 -17 -9t-15 -9q-8 -6 -16 -15t-14 -17q-4 -10 -9 -20l-9 -18l-212 -794q-2 -6 -1 -13zM548 1478q4 12 9 25t9 25q6 14 14 28t14 26q8 12 18 26t18 26q10 12 21 25t21 25t22 23t24 21q12 8 25 18 t25 16q16 8 30 14t28 10q14 2 29 5t31 3q20 0 39 -3t39 -9t40 -13t36 -15q20 -8 39 -15t35 -13t33 -11t31 -7q14 0 27 5t25 17t24 28t22 36h164q-4 -12 -10 -26t-10 -26l-12 -28t-12 -26q-8 -12 -15 -25t-13 -25t-15 -25t-17 -21l-21 -21t-21 -19q-22 -18 -50 -30 q-12 -6 -27 -12t-31 -8q-16 -4 -35 -6t-37 -2q-10 0 -21 1t-19 3q-10 2 -21 4t-21 4t-20 5t-20 7q-10 2 -20 6t-18 8q-10 2 -20 8t-18 8t-17 6t-17 8q-8 2 -16 5t-14 5t-12 3t-12 1q-8 0 -17 -2t-15 -4q-8 -4 -16 -11t-14 -13q-8 -8 -16 -17t-14 -17t-12 -17t-10 -17h-166z " />
<glyph unicode="&#xd6;" horiz-adv-x="1586" d="M-64 240q2 14 2 29t2 31q4 14 6 29t6 29l188 708q6 20 13 42t13 40q8 18 17 36t15 34q10 18 21 34t21 32q12 16 24 29t24 23q12 12 27 22t29 20q14 8 29 16t29 14q18 6 38 11t38 9q20 2 40 5t38 3h782q38 0 70 -6q16 -4 31 -9t29 -11t27 -15t25 -17q10 -10 19 -25t17 -29 q4 -14 10 -30t8 -34t4 -40t0 -44q-2 -14 -4 -32t-6 -36t-8 -39t-10 -41l-166 -616q-6 -22 -13 -44t-13 -42q-8 -20 -16 -39t-16 -37q-10 -22 -22 -41t-24 -37t-26 -35t-28 -31q-22 -22 -47 -40t-49 -30q-16 -8 -35 -15t-35 -9q-18 -2 -38 -5t-38 -3h-840q-18 0 -33 1t-29 5 q-14 2 -27 8t-23 12q-12 8 -24 18t-20 22q-10 12 -19 25t-13 29q-4 12 -8 26t-6 28t-4 30t-2 32zM434 297q0 -7 2 -13t5 -13t7 -11t10 -9t12 -7q4 -4 12 -6t14 -2h268q6 0 13 2t15 6q6 2 14 8l16 12q4 4 10 11t12 13q4 6 8 14t4 14l216 806q2 6 3 14t-1 14t-4 13t-8 11 q-2 4 -8 9t-10 7q-6 2 -12 5t-12 3h-256q-10 0 -20 -2t-16 -4q-8 -4 -17 -9t-17 -9q-6 -6 -14 -15t-14 -17q-6 -10 -11 -20t-7 -18l-212 -794q-2 -6 -2 -13zM538 1480l78 290h352l-78 -290h-352zM1008 1480l78 290h350l-78 -290h-350z" />
<glyph unicode="&#xd7;" horiz-adv-x="1150" d="M0 246l442 350l-256 350l192 152l256 -350l444 350l112 -154l-444 -348l256 -350l-192 -152l-258 348l-442 -348z" />
<glyph unicode="&#xd8;" horiz-adv-x="1698" d="M-268 -238l304 306q-4 6 -9 13t-9 13t-9 14t-7 16q-2 12 -6 26t-6 28t-4 30t-2 32q2 14 2 29t2 31q4 14 6 29t6 29l188 708q6 20 13 42t13 40q8 18 17 36t15 34q10 18 21 34t21 32q12 16 24 29t24 23q12 12 27 22t29 20q14 8 29 16t29 14q18 6 38 11t38 9q20 2 40 5t38 3 h784h7h9t9 -1t7 -1l218 218l234 2l-294 -290q6 -10 13 -20t13 -20q4 -14 10 -30t8 -34t4 -40t0 -44q-2 -14 -4 -32t-6 -36t-8 -39t-10 -41l-166 -616q-6 -22 -13 -44t-13 -42q-8 -20 -16 -39t-16 -37q-10 -22 -22 -41t-24 -37t-26 -35t-28 -31q-10 -10 -22 -21t-24 -19 q-12 -10 -25 -17t-25 -13q-16 -8 -35 -15t-35 -9q-18 -2 -37 -5t-39 -3h-828l-248 -242h-224zM474 274q0 -4 1 -9t3 -7q2 -4 5 -8t5 -6l9 -9t11 -7q4 -4 11 -6t13 -2h256q8 0 18 1t16 5q10 2 18 8t14 10q8 8 17 16t13 18q6 8 11 18t7 20l142 524zM556 580l566 564q2 2 1 7 t-3 9q-2 2 -4 6l-4 8q-4 4 -10 9t-10 7q-6 2 -12 5t-12 3h-256q-10 0 -20 -2t-16 -4q-8 -4 -17 -9t-15 -9q-8 -6 -16 -15t-14 -17q-4 -10 -10 -20t-8 -18z" />
<glyph unicode="&#xd9;" horiz-adv-x="1572" d="M-58 256q2 18 3 36t5 36q2 18 6 37t8 35l276 1036h502l-288 -1078q-4 -10 -5 -20t-1 -18q2 -10 5 -19t7 -17t11 -17t13 -15q10 -6 20 -10t22 -4h476q12 0 23 1t19 5q10 2 19 8t17 10q8 6 16 14t14 18q6 8 11 20t7 20l296 1102h216l-282 -1056q-4 -16 -10 -33t-10 -33 q-6 -18 -14 -36t-16 -34q-6 -16 -16 -34t-20 -32q-12 -16 -25 -32t-25 -32q-10 -12 -22 -24t-26 -20q-12 -8 -28 -18t-30 -16q-18 -8 -38 -16t-40 -10q-22 -4 -46 -7t-48 -3h-760q-24 0 -45 2t-37 6q-18 2 -35 9t-29 15q-14 8 -24 18t-18 20q-8 12 -16 25t-14 25 q-6 14 -12 31t-8 33q0 18 -2 36t-2 36zM688 1810h340l240 -330h-318z" />
<glyph unicode="&#xda;" horiz-adv-x="1572" d="M-58 256q2 18 3 36t5 36q2 18 6 37t8 35l276 1036h502l-288 -1078q-4 -10 -5 -20t-1 -18q2 -10 5 -19t7 -17t11 -17t13 -15q10 -6 20 -10t22 -4h476q12 0 23 1t19 5q10 2 19 8t17 10q8 6 16 14t14 18q6 8 11 20t7 20l296 1102h216l-282 -1056q-4 -16 -10 -33t-10 -33 q-6 -18 -14 -36t-16 -34q-6 -16 -16 -34t-20 -32q-12 -16 -25 -32t-25 -32q-10 -12 -22 -24t-26 -20q-12 -8 -28 -18t-30 -16q-18 -8 -38 -16t-40 -10q-22 -4 -46 -7t-48 -3h-760q-24 0 -45 2t-37 6q-18 2 -35 9t-29 15q-14 8 -24 18t-18 20q-8 12 -16 25t-14 25 q-6 14 -12 31t-8 33q0 18 -2 36t-2 36zM600 1480l416 330h340l-438 -330h-318z" />
<glyph unicode="&#xdb;" horiz-adv-x="1572" d="M-58 256q2 18 3 36t5 36t7 37t9 35l274 1036h502l-288 -1078q-2 -10 -3 -20t-1 -18q0 -10 3 -19t7 -17t11 -17t15 -15t19 -10t21 -4h476q12 0 23 1t21 5q10 2 19 8l15 10q10 6 18 14t12 18q6 8 12 20t8 20l294 1102h216l-282 -1056q-4 -16 -10 -33t-10 -33 q-6 -18 -13 -36t-15 -34t-18 -34t-20 -32q-10 -16 -23 -32t-27 -32q-8 -12 -21 -24t-27 -20q-12 -8 -28 -18t-30 -16q-18 -8 -37 -16t-41 -10q-22 -4 -46 -7t-48 -3h-760q-22 0 -43 2t-39 6q-18 2 -34 9t-30 15q-12 8 -23 18t-19 20q-8 12 -16 25t-14 25q-6 14 -11 31t-7 33 l-4 36t-2 36zM552 1480l332 324h350l156 -324h-318l-58 166l-162 -166h-300z" />
<glyph unicode="&#xdc;" horiz-adv-x="1572" d="M-52 220q-2 18 0 36t3 36t3 36q4 18 8 37t8 35l276 1036h502l-290 -1078q-2 -10 -3 -20t-1 -18q2 -10 4 -19t6 -17t11 -17t15 -15q10 -6 20 -10t20 -4h476q12 0 23 1t21 5q10 2 19 8t17 10q8 6 16 14t14 18l10 20t8 20l296 1102h216l-284 -1056q-4 -16 -9 -33t-11 -33 q-6 -18 -13 -36t-15 -34t-18 -34t-20 -32q-10 -16 -23 -32t-25 -32q-10 -12 -23 -24t-25 -20q-14 -8 -29 -18t-31 -16q-16 -8 -36 -16t-40 -10q-22 -4 -47 -7t-49 -3h-760q-22 0 -43 2t-39 6q-16 2 -33 9t-29 15q-14 8 -25 18t-19 20q-8 12 -16 25t-14 25q-6 14 -11 31 t-7 33zM526 1480l78 290h352l-76 -290h-354zM1000 1480l76 290h350l-76 -290h-350z" />
<glyph unicode="&#xdd;" horiz-adv-x="1590" d="M120 1436h590l198 -590l492 590h258l-756 -902l-142 -534h-500l148 556zM594 1480l416 330h340l-438 -330h-318z" />
<glyph unicode="&#xde;" horiz-adv-x="1538" d="M-86 0l382 1438h508l-60 -230h566q14 0 26 -1t24 -3t25 -6t23 -6q12 -4 22 -9t20 -11t19 -13t17 -15q10 -8 19 -21t13 -27q6 -16 10 -32t6 -34v-23t-2 -25t-4 -26t-6 -28l-96 -356q-4 -18 -11 -37t-13 -33q-8 -14 -16 -30t-16 -30q-10 -12 -20 -25t-18 -21 q-10 -10 -22 -20t-22 -18q-14 -10 -28 -18t-28 -14t-28 -13t-28 -9q-12 -4 -27 -7t-27 -5q-14 -2 -29 -3t-29 -1h-568l-76 -288h-506zM556 518h282q6 0 14 2t14 6q6 2 15 9t15 13t12 13t10 13q6 8 10 16t6 14l78 294q2 6 2 13v13t-3 13t-5 11q-4 6 -8 10t-10 8q-6 2 -11 5 t-11 3h-288z" />
<glyph unicode="&#xdf;" horiz-adv-x="1512" d="M-46 0l226 852h-142l54 200h140l24 92q4 14 10 29t12 31q8 14 17 29t19 29q6 8 15 19t17 21l21 21t23 19q10 8 23 18t27 18q16 8 31 16t29 14q16 6 33 10t33 8q16 2 34 5t36 3h686q8 0 17 -1t19 -1q8 0 17 -2t17 -4t16 -6t16 -6q8 -4 16 -9t12 -9q22 -18 34 -46 q10 -30 -2 -72l-52 -194q-4 -16 -12 -31t-16 -25q-12 -10 -27 -21t-33 -19q-10 -4 -24 -10t-26 -10q-16 -4 -33 -10t-35 -10q16 0 32 -1t28 -3q16 -2 28 -5t24 -5q16 -4 30 -11t24 -13q10 -8 19 -18t15 -18q6 -12 11 -25t7 -27q2 -16 2 -30t-2 -30t-5 -33t-7 -31t-7 -31 t-7 -33l-94 -346q-4 -16 -9 -32t-11 -30q-6 -16 -12 -29t-12 -25q-8 -16 -17 -30t-19 -26q-8 -12 -20 -24t-24 -20q-8 -10 -18 -17t-20 -13l-24 -12t-22 -8q-14 -4 -30 -8t-32 -6q-16 -4 -33 -5t-33 -1h-462l54 200h184q2 0 8 1t8 3q6 2 12 5t10 7q4 2 8 8t6 8q4 2 7 8l5 10 l130 486q2 6 2 13t-2 13q0 8 -2 15t-4 11q-4 6 -8 11t-10 9q-4 2 -11 5t-13 3h-178l56 206h140q8 0 18 3t18 9t18 15t16 17q4 6 10 14t10 16l8 16t6 14t3 14t1 18q0 8 -2 17t-2 15q-2 8 -6 15t-8 11t-12 7t-14 3h-170q-4 0 -10 -1t-10 -3q-6 -2 -12 -5t-8 -5q-4 -4 -9 -8 t-7 -6q-4 -4 -7 -10t-5 -8l-316 -1182h-484z" />
<glyph unicode="&#xe0;" d="M-64 160v33t2 33q4 16 7 34t9 34q4 16 7 33t7 31t8 30t8 30t10 31t10 33q6 16 13 31t13 31q8 14 17 30t19 28q10 14 23 27t25 23q12 12 28 22t34 16q26 12 58 18t68 6h496q6 0 14 2t16 6q6 2 15 9t17 13q4 2 9 8t7 12q6 6 9 12t3 10q4 12 2 24q-2 6 -5 11t-7 9q-2 4 -7 8 t-11 8q-10 6 -22 6h-660l56 206h920q20 0 38 -2t34 -4q16 -4 30 -10t26 -12q14 -6 25 -16t19 -20q10 -10 17 -23t11 -25t8 -25t4 -25q2 -14 3 -28t1 -28q0 -18 -2 -38t-8 -38q-2 -18 -6 -37t-8 -35l-184 -688h-428v112q-2 -6 -6 -12t-6 -8q-4 -4 -8 -10t-6 -8q-6 -6 -11 -12 t-9 -8q-4 -4 -11 -10t-9 -8q-14 -10 -28 -17t-26 -11q-14 -2 -29 -5t-27 -3h-446q-38 0 -64 6q-12 2 -25 7t-23 11q-8 6 -18 13t-16 17q-6 8 -13 20t-9 24q-4 12 -7 27t-1 31zM429 266q-1 -6 1 -10q0 -6 2 -12t2 -10l10 -10t10 -8q6 -4 12 -6t12 -2h192q4 0 10 1t14 5 q6 2 13 8t13 10q4 2 9 8t9 10q4 6 7 12l5 10l64 238h-236q-8 0 -17 -3t-17 -5q-8 -4 -16 -9t-16 -11l-13 -13l-13 -13q-4 -8 -9 -16t-7 -14l-40 -150q0 -4 -1 -10zM574 1440h342l240 -328h-318z" />
<glyph unicode="&#xe1;" d="M-64 160v33t4 33q2 16 5 34t9 34q4 16 7 33t7 31t8 30t8 30t10 31t10 33q6 16 13 31t13 31q8 14 17 30t19 28q10 14 23 27t25 23q12 12 28 22t34 16q26 12 58 18t68 6h496q6 0 14 2t16 6q6 2 15 9t17 13q4 2 9 8t9 12t7 12t3 10q4 12 2 24q-2 6 -5 11t-7 9q-2 4 -7 8 t-11 8q-10 6 -22 6h-660l56 206h920q20 0 38 -2t34 -4q16 -4 30 -10t26 -12q14 -6 26 -16t18 -20q10 -10 17 -23t11 -25t8 -25t4 -25q2 -14 3 -28t1 -28q0 -18 -2 -38t-6 -38t-8 -37t-8 -35l-184 -688h-428v112q-2 -6 -6 -12t-6 -8q-4 -4 -8 -10t-6 -8q-6 -6 -11 -12t-9 -8 l-10 -10t-10 -8q-14 -10 -27 -17t-27 -11q-12 -2 -27 -5t-29 -3h-446q-36 0 -62 6q-14 2 -27 7t-23 11q-8 6 -18 13t-16 17q-6 8 -13 20t-9 24q-4 12 -7 27t-1 31zM430 256q0 -6 2 -12t4 -10t8 -10t10 -8q6 -4 12 -6t12 -2h192q4 0 11 1t13 5q6 2 14 8t12 10q4 2 9 8t9 10 q4 6 7 12l5 10l64 238h-236q-8 0 -17 -3l-15 -5q-10 -4 -18 -9t-16 -11l-13 -13l-13 -13q-4 -8 -9 -16t-7 -14l-40 -150v-10v-10zM486 1112l418 328h340l-438 -328h-320z" />
<glyph unicode="&#xe2;" d="M-64 160v33t4 33q2 16 6 34t8 34t7 33t7 31t8 30t8 30t10 31t10 33q6 16 13 31t13 31q8 14 17 30t19 28q10 14 23 27t25 23q14 12 30 22t32 16q26 12 58 18t68 6h496q6 0 15 2t15 6q6 2 15 9t17 13q4 2 9 8t9 12t7 12l5 10q2 12 0 24q-2 6 -5 11t-5 9q-4 4 -9 8t-9 8 q-12 6 -24 6h-660l56 206h920q20 0 38 -2t34 -4q16 -4 30 -10t26 -12q14 -6 26 -16t20 -20t15 -23t11 -25t8 -25t4 -25q4 -14 4 -28v-28q0 -18 -2 -38t-6 -38t-8 -37t-8 -35l-184 -688h-428v112q-2 -6 -6 -12t-6 -8q-4 -4 -8 -10t-6 -8q-4 -6 -10 -12t-10 -8l-10 -10t-10 -8 q-14 -10 -27 -17t-27 -11q-12 -2 -27 -5t-29 -3h-446q-36 0 -62 6q-14 2 -27 7t-23 11q-8 6 -18 13t-16 17q-6 8 -12 20t-10 24t-7 27t-1 31zM362 1112l330 324h352l154 -324h-316l-58 164l-162 -164h-300zM430 256q0 -6 2 -12t4 -10t8 -10t10 -8q6 -4 12 -6t12 -2h192 q6 0 12 1t12 5q6 2 14 8t14 10l8 8t8 10q4 6 7 12l5 10l64 238h-236q-8 0 -17 -3l-15 -5q-8 -4 -17 -9t-17 -11l-13 -13t-11 -13q-6 -8 -11 -16t-5 -14l-42 -150v-10v-10z" />
<glyph unicode="&#xe3;" d="M-62 160v33t2 33q4 16 7 34t9 34q4 16 7 33t7 31t8 30t8 30t9 31t11 33t12 31t14 31q8 14 17 30t19 28q10 14 23 27l23 23q14 12 30 22t34 16q26 12 58 18t68 6h496q6 0 14 2t16 6q6 2 15 9t17 13q4 2 9 8t9 12t7 12t3 10q4 12 2 24q-2 6 -5 11t-7 9q-2 4 -7 8t-11 8 q-10 6 -22 6h-660l56 206h920q20 0 38 -2t34 -4q16 -4 30 -10t26 -12q14 -6 25 -16t19 -20q10 -10 17 -23t11 -25t8 -25t4 -25q2 -14 3 -28t1 -28q0 -18 -2 -38t-8 -38q-2 -18 -6 -37t-8 -35l-184 -688h-428v112q-2 -6 -6 -12t-6 -8q-4 -4 -8 -10t-6 -8q-6 -6 -11 -12t-9 -8 q-4 -4 -11 -10t-9 -8q-14 -10 -28 -17t-26 -11q-14 -2 -28 -5t-28 -3h-446q-36 0 -64 6q-12 2 -25 7t-23 11q-8 6 -18 13t-16 17q-6 8 -13 20t-9 24q-4 12 -7 27t-1 31zM392 1110q2 12 8 25t12 25l13 26t15 26q6 14 15 28t19 26q8 12 19 25t21 23l24 24t24 20q12 10 26 20 t26 16l28 12t28 10t29 7t29 3q42 0 82 -12q18 -6 38 -14t38 -14q18 -8 37 -16t35 -14t32 -11t32 -5q12 0 25 5t27 17q12 12 24 28t22 36h164q-4 -14 -11 -28t-11 -26l-12 -28t-10 -26q-6 -12 -14 -25t-14 -25q-8 -12 -17 -24t-17 -22l-20 -20t-20 -18q-24 -18 -50 -30 q-14 -6 -29 -12t-31 -8q-16 -4 -34 -6t-36 -2q-8 0 -20 1t-22 1q-10 2 -21 4t-21 4q-8 2 -19 5t-21 7q-10 2 -20 8t-18 8q-10 2 -20 6t-18 8q-8 2 -17 6t-15 8q-8 2 -16 5t-14 5t-13 4t-13 2q-8 0 -16 -2l-16 -4q-6 -4 -15 -11t-15 -13q-8 -8 -15 -17t-13 -17q-4 -8 -11 -17 t-9 -17h-168zM431 266q-1 -6 1 -10q0 -6 2 -12t4 -10t8 -10t10 -8q6 -4 12 -6t12 -2h192q4 0 10 1t14 5q6 2 14 8t12 10q4 2 9 8t9 10q4 6 7 12l5 10l64 238h-238q-6 0 -15 -3l-15 -5q-10 -4 -18 -9t-16 -11l-13 -13l-13 -13q-4 -8 -9 -16t-7 -14l-40 -150q0 -4 -1 -10z" />
<glyph unicode="&#xe4;" d="M-60 160q0 16 1 33t3 33q4 16 7 34t7 34t8 33t8 31t8 30t8 30t9 31t9 33q6 16 13 31t15 31q6 14 16 30t18 28q10 14 23 27t25 23q14 12 30 22t32 16q28 12 60 18t66 6h496q6 0 15 2t15 6q8 2 17 9t15 13q4 2 9 8t9 12t7 12l5 10q4 12 0 24q-2 6 -4 11t-6 9l-8 8t-10 8 q-10 6 -22 6h-660l56 206h918q20 0 39 -2t35 -4q16 -4 30 -10t26 -12t24 -16t20 -20t15 -23t11 -25q6 -12 9 -25t5 -25q2 -14 3 -28t-1 -28q0 -18 -2 -38t-6 -38t-7 -37t-9 -35l-184 -688h-428v112q0 -6 -4 -12t-6 -8q-4 -4 -9 -10t-7 -8q-4 -6 -10 -12l-8 -8q-6 -4 -12 -10 t-10 -8q-12 -10 -26 -17t-28 -11q-12 -2 -27 -5t-29 -3h-446q-36 0 -62 6q-14 2 -26 7t-22 11t-19 13t-15 17q-8 8 -14 20t-10 24t-6 27t-2 31zM362 1110l78 292h354l-78 -292h-354zM434 256q2 -6 3 -12t3 -10q4 -4 9 -10t11 -8q4 -4 11 -6t13 -2h192q4 0 10 1t12 5 q8 2 15 8t13 10q4 2 9 8t7 10q6 6 9 12t3 10l64 238h-236q-8 0 -17 -3l-15 -5q-8 -4 -17 -9t-17 -11l-13 -13t-11 -13q-6 -8 -10 -16t-6 -14l-40 -150q-2 -4 -2 -10v-10zM834 1110l78 292h350l-78 -292h-350z" />
<glyph unicode="&#xe5;" d="M-70 160q0 16 1 33t3 33q4 16 7 34t7 34q6 16 9 33t7 31t8 30t8 30t10 31t10 33t11 31t15 31q6 14 16 30t20 28q8 14 21 27t25 23q14 12 30 22t32 16q28 12 60 18t66 6h496q6 0 15 2t17 6q6 2 15 9t15 13q4 2 10 8t8 12q6 6 9 12t3 10q4 12 0 24q0 6 -3 11t-7 9l-8 8 t-10 8q-10 6 -22 6h-660l56 206h920q18 0 37 -2t35 -4q16 -4 30 -10t26 -12q14 -6 25 -16t19 -20q10 -10 16 -23t12 -25q4 -12 7 -25t5 -25q2 -14 3 -28t-1 -28q0 -18 -1 -38t-7 -38q-2 -18 -6 -37t-8 -35l-186 -688h-428l2 112q-2 -6 -6 -12t-6 -8q-4 -4 -9 -10t-7 -8 q-4 -6 -9 -12t-9 -8q-4 -4 -11 -10t-11 -8q-12 -10 -26 -17t-26 -11q-14 -2 -29 -5t-29 -3h-446q-36 0 -62 6q-14 2 -26 7t-20 11q-10 6 -20 13t-16 17q-8 8 -14 20t-8 24q-4 12 -7 27t-3 31zM424 256q2 -6 3 -12t3 -10q4 -4 9 -10t11 -8q6 -4 12 -6t12 -2h192q4 0 10 1 t14 5q6 2 13 8t13 10q4 2 9 8t7 10q6 6 9 12t3 10l64 238h-236q-8 0 -16 -3t-16 -5q-8 -4 -17 -9t-15 -11q-8 -6 -15 -13t-11 -13q-4 -8 -9 -16t-7 -14l-40 -150q-2 -4 -2 -10v-10zM631 1257q1 19 5 37q6 18 14 35t18 33q12 16 27 31t29 27q16 12 33 23t33 17q18 6 38 10 t38 4t36 -4t30 -10q16 -6 28 -16t20 -22q10 -12 17 -28t9 -30v-34t-6 -36q-4 -18 -13 -36t-19 -34t-24 -31t-30 -27q-14 -12 -33 -23t-35 -17q-18 -6 -38 -10t-38 -4t-36 4t-30 10q-16 6 -28 16t-20 22q-10 12 -15 27t-7 31q-4 16 -3 35zM730 1260q0 -8 4 -15t8 -11 q4 -6 10 -11t12 -7q6 -4 14 -6t18 -2q8 0 17 1t15 5q10 2 18 8t16 10q8 6 14 13t12 15q4 8 9 16t7 18q2 8 3 16t1 16q-2 8 -6 15t-8 11q-4 6 -10 10l-12 8q-6 2 -14 5t-18 3q-8 0 -17 -2t-15 -4q-8 -4 -17 -9t-17 -9q-8 -6 -14 -13t-12 -15q-4 -8 -9 -16t-7 -16 q-4 -18 -2 -34z" />
<glyph unicode="&#xe6;" horiz-adv-x="2086" d="M-18 164q0 10 1 22t3 24t5 26t5 28l46 174q4 16 9 31t9 29t11 27t13 25q8 16 18 30t18 26q10 12 21 22t23 20q18 14 41 27t45 19q12 2 24 5t24 3q12 2 27 3t27 1h424q6 0 12 2t14 6q6 2 15 8t15 12q6 4 12 11t12 13q4 8 9 16t7 14q0 4 1 10t-1 10t-4 9t-4 9q-4 4 -10 8 t-10 8l-12 4t-10 2h-594l56 208h1624h11h15q6 0 14 -2t16 -2q8 -2 16 -5t16 -5l12 -8t10 -6t8 -8t8 -8q2 -4 6 -10t6 -8q4 -4 8 -10t6 -10q2 -6 5 -12t3 -12q2 -8 4 -20t2 -22t-1 -23t-3 -25q0 -16 -4 -35t-8 -37l-100 -374h-732l-30 -114q-2 -8 -1 -16t1 -16t4 -16t8 -14 t9 -13t11 -9q6 -4 13 -6t15 -2h602l-56 -206h-900q-14 0 -28 1t-26 3t-24 8t-22 12q-4 2 -9 6t-11 8q-4 4 -9 10t-9 10l-8 12l-8 12q-2 6 -6 13t-4 13q-10 -10 -17 -20t-11 -18q-6 -10 -14 -18l-14 -14l-9 -9t-9 -7q-4 -4 -10 -7t-12 -5q-8 -2 -16 -5t-14 -3q-10 -2 -21 -3 t-23 -1h-408q-12 0 -26 1t-24 3q-14 2 -27 7t-23 11q-8 2 -17 8t-15 12q-8 6 -14 14t-10 18q-4 8 -8 18l-8 20q-2 12 -4 25t-2 27zM455 265q-1 -7 1 -13l4 -12t6 -10l9 -9t11 -7q10 -6 22 -6h142q6 0 13 1t13 3q8 2 15 6t11 8q6 6 11 13t9 17q6 10 11 23t9 27l52 196h-212 q-4 0 -10 -1t-10 -3q-8 -2 -14 -7t-10 -7q-8 -4 -14 -11t-10 -13q-6 -6 -10 -14t-6 -14l-42 -154q0 -6 -1 -13zM1286 618h304l44 166q2 4 2 10v10q0 6 -2 12t-4 10t-5 8t-5 8q-4 2 -9 4t-9 2h-206q-6 0 -11 -2t-9 -4q-4 -4 -9 -8t-9 -6q-4 -4 -9 -10t-9 -10q-2 -6 -5 -12 l-5 -10z" />
<glyph unicode="&#xe7;" horiz-adv-x="1182" d="M62 204q2 12 2 25t2 25t4 25t6 25l116 438q4 14 10 28t10 30q8 14 16 30t16 30t19 29t21 29q12 14 25 27l25 25q12 8 25 18t25 18t27 16t31 14q10 2 22 6t24 6q14 2 28 3t26 1h796l-56 -206h-484q-6 0 -16 -3t-18 -5q-8 -4 -17 -9t-15 -11q-8 -6 -17 -13t-13 -13 q-4 -8 -9 -16t-7 -14l-128 -476v-14t2 -14q2 -8 6 -15t8 -11q4 -6 11 -11t15 -7q6 -4 14 -5t16 -1h482l-56 -208h-400l-108 -122h122q10 0 18 -1t16 -5q8 -2 15 -8t13 -12q6 -8 10 -16t6 -18q4 -8 5 -18t-3 -20l-54 -206q-2 -8 -7 -16t-11 -18q-6 -8 -14 -18t-16 -18 q-6 -6 -15 -13t-19 -11q-8 -4 -18 -7t-18 -3h-324l20 78h194q2 0 5 1l3 1q4 0 7 2t5 4t5 4t3 4l4 4t2 4l54 198v6v4q0 4 -2 6t-2 4q-4 2 -6 4t-6 2q-2 0 -5 1t-5 1h-190l20 80h46l112 122h-242q-22 0 -40 2t-34 6q-16 2 -30 9l-26 13q-10 8 -20 17t-18 19q-10 8 -17 21 t-11 25q-4 8 -7 20t-5 24q-6 24 -6 48z" />
<glyph unicode="&#xe8;" horiz-adv-x="1430" d="M-66 140v27t2 29q0 10 1 21t3 21q4 12 6 25t6 25l124 474l8 24t8 22q2 10 7 21t7 21l16 32t16 30l20 28t18 24q12 12 25 24t23 20l28 16t28 12l28 8t28 6t29 4t29 2h810q16 0 33 -2t33 -4q16 -4 32 -9t28 -13q10 -6 20 -15t16 -17q6 -10 12 -22l12 -24q2 -8 4 -20t2 -22 v-23t-2 -25q-2 -16 -6 -35t-8 -37l-100 -374h-814l-32 -114q-2 -8 -1 -16t1 -16t5 -16t9 -14t11 -13t13 -9q8 -4 15 -6t15 -2h674l-54 -206h-1008q-14 0 -30 1t-30 3t-28 8t-24 12q-10 4 -19 12t-17 16q-6 8 -12 20l-12 24q-2 8 -5 19t-3 23zM484 1440h340l242 -328h-318z M522 618h342l44 166q2 4 2 10v10l-4 12t-4 10t-6 8l-8 8q-4 2 -9 4t-9 2h-232q-4 0 -10 -2t-10 -4l-12 -8t-10 -6q-4 -4 -9 -10t-9 -10q-8 -12 -10 -22z" />
<glyph unicode="&#xe9;" horiz-adv-x="1430" d="M-66 140v27t2 29q0 10 1 21t3 21q4 12 6 25t6 25l124 474l8 24t8 22q2 10 7 21t7 21l16 32t18 30q8 14 18 28t18 24q12 12 25 24t23 20q14 8 29 16t27 12l28 8t28 6t29 4t29 2h810q16 0 33 -2t33 -4q16 -4 32 -9t28 -13q10 -6 20 -15t16 -17q6 -10 12 -22l12 -24 q2 -8 4 -20t2 -22v-23v-25q-4 -16 -8 -35t-8 -37l-100 -374h-814l-32 -114q-2 -8 -1 -16t1 -16q2 -8 6 -16t8 -14t11 -13t13 -9q8 -4 16 -6t14 -2h674l-54 -206h-1006q-16 0 -32 1t-30 3t-28 8t-24 12q-10 4 -19 12t-15 16q-8 8 -14 20t-10 24q-4 8 -7 19t-3 23zM396 1112 l418 328h340l-440 -328h-318zM522 618h342l44 166q2 4 2 10v10l-4 12t-4 10t-6 8l-8 8q-4 2 -9 4t-9 2h-232q-4 0 -10 -2t-10 -4q-4 -4 -11 -8t-11 -6q-4 -4 -9 -10t-7 -10q-6 -6 -9 -12t-3 -10z" />
<glyph unicode="&#xea;" horiz-adv-x="1430" d="M-66 140q2 12 1 27t1 29q0 10 1 21t3 21q4 12 7 25t5 25l126 474q2 12 7 24t7 22t7 21t7 21q8 16 17 32t17 30t18 28t20 24q10 12 23 24t25 20t27 16t27 12l28 8t28 6t29 4t29 2h810q16 0 33 -2t33 -4q16 -4 32 -9t28 -13q10 -6 20 -15t16 -17q6 -10 13 -22t11 -24 q2 -8 4 -20t2 -22t1 -23t-1 -25q-4 -16 -7 -35t-9 -37l-100 -374h-814l-30 -114q-2 -8 -2 -16v-16q2 -8 6 -16t8 -14q6 -6 12 -13t12 -9q8 -4 16 -6t14 -2h674l-54 -206h-1006q-16 0 -31 1t-31 3q-14 2 -28 8t-24 12q-8 4 -18 12t-16 16t-13 20t-11 24q-4 8 -7 19t-3 23z M362 1112l330 324h352l154 -324h-316l-58 164l-162 -164h-300zM522 618h342l46 166v10v10q0 6 -3 12l-5 10t-6 8l-8 8q-2 2 -8 4t-10 2h-232q-4 0 -10 -2t-10 -4q-4 -4 -11 -8t-11 -6q-4 -4 -9 -10t-7 -10q-10 -12 -12 -22z" />
<glyph unicode="&#xeb;" horiz-adv-x="1430" d="M-60 140v27v29q2 10 3 21t3 21q2 12 5 25t7 25l124 474l8 24t6 22q4 10 8 21t8 21q6 16 15 32t17 30t19 28t19 24q10 12 23 24t25 20t27 16t29 12q12 4 27 8t27 6q16 2 31 4t27 2h810q18 0 35 -2t33 -4q14 -4 30 -9t30 -13q10 -6 19 -15t15 -17q8 -10 14 -22t10 -24 q2 -8 4 -20t4 -22v-23t-2 -25q-2 -16 -6 -35t-10 -37l-100 -374h-814l-30 -114q-2 -8 -2 -16t2 -16q0 -8 5 -16t9 -14t11 -13t13 -9q6 -4 14 -6t16 -2h674l-56 -206h-1006q-14 0 -30 1t-30 3t-28 8t-26 12q-8 4 -17 12t-17 16q-6 8 -13 20t-11 24q-4 8 -6 19t-2 23z M374 1110l80 292h352l-78 -292h-354zM528 618h342l44 166q2 4 2 10v10q-2 6 -5 12t-3 10q-2 4 -7 8t-7 8q-4 2 -9 4t-11 2h-232q-4 0 -9 -2t-9 -4l-12 -8t-10 -6l-10 -10t-8 -10q-10 -12 -12 -22zM848 1110l78 292h350l-78 -292h-350z" />
<glyph unicode="&#xec;" horiz-adv-x="706" d="M-72 0l280 1058h482l-284 -1058h-478zM196 1440h340l242 -328h-318z" />
<glyph unicode="&#xed;" horiz-adv-x="706" d="M-72 0l280 1058h482l-282 -1058h-480zM108 1112l418 328h340l-438 -328h-320z" />
<glyph unicode="&#xee;" horiz-adv-x="816" d="M-72 0l282 1058h480l-282 -1058h-480zM48 1112l328 324h350l158 -324h-316l-58 164l-164 -164h-298z" />
<glyph unicode="&#xef;" horiz-adv-x="808" d="M-68 0l282 1058h482l-284 -1058h-480zM62 1110l78 292h350l-78 -292h-350zM530 1110l78 292h350l-78 -292h-350z" />
<glyph unicode="&#xf0;" horiz-adv-x="1434" d="M-58 186v25t2 25t4 25t4 25l70 262q4 18 10 35t12 33q6 14 14 30t16 30q8 12 19 25t19 23q10 12 21 22t21 20q10 8 24 18t26 18q14 8 29 15t29 11q18 6 34 11t24 7q12 2 21 3t13 1h10h6t3 -1l1 -1h136h134h134h134l42 162q2 6 2 12v10q-2 4 -4 9t-4 9q-2 2 -7 6t-7 8 q-6 2 -11 6t-11 8l-258 -136l-150 130l200 100l-226 104l310 164l236 -114l196 120l166 -118l-188 -92l210 -102q6 -4 12 -9t10 -11t8 -15t6 -17t3 -17t-1 -17q2 -10 0 -20t-4 -18l-270 -1010h-1024q-20 0 -36 1t-28 1q-10 2 -19 4t-15 4q-4 2 -8 5t-4 5l-4 4l-2 2 q-12 6 -22 13t-16 17q-8 8 -16 18t-12 20q-6 8 -10 20t-6 24q-4 12 -6 24t-2 24zM426 248q2 -6 5 -12t7 -8q0 -4 5 -9l7 -7q12 -6 24 -6h212q4 0 10 1t10 5q6 2 13 7t11 9t9 10t9 12t7 12t3 10l82 304q2 4 2 10v12l-4 12t-4 8q-2 4 -6 8l-8 8q-4 2 -9 4t-9 2h-216 q-4 0 -10 -2l-12 -4q-6 -4 -13 -8t-11 -8l-10 -10t-8 -12q-4 -6 -8 -13t-6 -13l-80 -300q0 -4 -1 -10t-1 -12z" />
<glyph unicode="&#xf1;" horiz-adv-x="1464" d="M-104 0l280 1052h1022q38 0 70 -9t58 -25q24 -14 41 -35t27 -47q4 -10 7 -22t7 -24q2 -14 3 -28t1 -30q-2 -16 -2 -32t-4 -32q-2 -16 -6 -35t-8 -37l-186 -696h-484l210 784q2 8 2 15v11q-2 6 -4 11t-4 9q-4 4 -9 8t-9 6q-6 2 -13 3t-13 1h-210q-4 0 -10 -1t-12 -3 q-8 -2 -14 -6t-10 -6q-4 -4 -9 -8t-9 -10q-6 -6 -9 -13t-5 -15l-212 -786h-486zM376 1110q4 12 9 25t9 25q6 12 14 26t14 26q8 14 17 28t19 26t20 25t22 23q10 12 22 24t22 20q12 10 26 20t26 16q14 6 29 12t27 10q16 4 31 7t29 3q20 0 40 -3t40 -9t39 -14t37 -14 q20 -8 38 -16t34 -14t32 -11t32 -5q14 0 28 5t26 17t24 28t22 36h162q-2 -14 -8 -28t-12 -26q-4 -14 -11 -28l-13 -26t-14 -25t-14 -25t-14 -24t-18 -22q-8 -10 -19 -20t-21 -18q-22 -18 -50 -30q-14 -6 -29 -12t-31 -8q-16 -4 -35 -6t-37 -2q-8 0 -19 1t-19 1q-10 2 -21 4 t-21 4t-21 5t-21 7q-10 2 -19 8t-19 8q-8 2 -19 6t-19 8q-8 2 -17 6t-17 8q-8 2 -16 5t-14 5l-12 4t-12 2t-15 -2t-15 -4q-8 -4 -17 -11t-15 -13q-8 -8 -16 -17t-12 -17q-6 -8 -12 -17t-10 -17h-166z" />
<glyph unicode="&#xf2;" horiz-adv-x="1446" d="M-71 159q-1 13 1 29v16t2 18q2 8 4 20t6 22l134 508q4 14 8 27t8 25q2 12 8 24t10 22q8 16 18 32t18 30q10 14 20 25t20 21q12 10 25 20t23 16l26 13t24 9q14 2 27 6t25 6t25 3t25 1h836q14 0 28 -1t26 -3t25 -6t23 -6q12 -2 21 -8t15 -12q8 -6 16 -16t14 -18t9 -21 t7 -25q2 -14 4 -30t0 -34q0 -10 -1 -22t-5 -24t-6 -27t-6 -29l-134 -498q-4 -14 -9 -30t-9 -28q-6 -14 -12 -27t-12 -25q-6 -14 -15 -27t-19 -25q-8 -12 -18 -22t-20 -18q-8 -8 -19 -16t-21 -14t-23 -13t-23 -9q-14 -4 -29 -8t-29 -6q-16 -2 -31 -3t-29 -1h-822q-14 0 -30 1 t-30 5q-14 2 -28 8t-26 12q-8 6 -17 13t-15 15q-8 8 -15 17t-13 19q-2 8 -6 20t-6 24t-3 25zM424 260q0 -6 2 -10l4 -12t4 -8q2 -4 6 -9t8 -7q10 -6 20 -6h230q6 0 11 1t11 5q6 2 13 6t11 8q6 2 11 8t7 10q6 6 9 12t3 10l140 520q2 4 2 10v10q-2 4 -5 9t-5 9l-6 6t-8 6t-9 4 t-7 2h-264q-6 0 -14 -6q-4 -4 -9 -8t-7 -6q-2 -4 -6 -9t-4 -7q-2 -4 -4 -10t-4 -8l-138 -518q-2 -6 -2 -12zM574 1440h342l240 -328h-318z" />
<glyph unicode="&#xf3;" horiz-adv-x="1446" d="M-71 159q-1 13 1 29v16t2 18q2 8 4 20t6 22l134 508q4 14 8 27t8 25t9 24t9 22q8 16 18 32t18 30q10 14 20 25t20 21q12 10 25 20t23 16l26 13t24 9q14 2 27 6t25 6t25 3t25 1h836q14 0 28 -1t26 -3t25 -6t23 -6q12 -2 21 -8t15 -12q8 -6 16 -16t14 -18t9 -21t7 -25 q2 -14 4 -30t0 -34q0 -10 -1 -22t-5 -24q-2 -12 -5 -27t-7 -29l-134 -498q-4 -14 -9 -30t-9 -28q-4 -14 -11 -27t-13 -25q-6 -14 -15 -27t-19 -25q-8 -12 -18 -22t-20 -18q-8 -8 -19 -16t-21 -14t-23 -13t-23 -9q-14 -4 -29 -8t-29 -6q-16 -2 -31 -3t-27 -1h-824 q-14 0 -30 1t-30 5q-14 2 -28 8t-26 12q-6 6 -16 13t-16 15q-8 8 -15 17t-11 19q-4 8 -8 20t-6 24t-3 25zM424 260q0 -6 2 -10l4 -12t4 -8q2 -4 6 -9t8 -7q10 -6 20 -6h230q6 0 12 1t10 5q8 2 14 6t10 8q6 2 11 8t7 10q6 6 9 12t3 10l140 520q2 4 2 10v10q-2 4 -5 9t-5 9 l-6 6t-8 6t-9 4t-7 2h-264q-6 0 -14 -6q-4 -4 -9 -8t-7 -6q-2 -4 -6 -9t-4 -7q-2 -4 -4 -10t-4 -8l-138 -518q-2 -6 -2 -12zM486 1112l418 328h340l-438 -328h-320z" />
<glyph unicode="&#xf4;" horiz-adv-x="1446" d="M-71 159q-1 13 1 29v16t2 18q4 8 6 20t4 22l134 508q4 14 8 27t8 25t9 24t9 22q8 16 18 32t20 30q8 14 19 25l21 21l24 20t24 16t25 13t25 9t25 6t25 6t26 3t26 1h836q12 0 26 -1t26 -3q14 -2 26 -6t24 -6q10 -2 19 -8t17 -12t15 -16t13 -18t10 -21t6 -25q2 -14 4 -30 t2 -34q-2 -10 -3 -22t-5 -24q-2 -12 -5 -27t-7 -29l-134 -498q-4 -14 -9 -30t-9 -28q-4 -14 -10 -27t-14 -25q-6 -14 -15 -27t-19 -25q-8 -12 -18 -22t-20 -18q-8 -8 -19 -16t-21 -14t-23 -13t-23 -9q-12 -4 -28 -8t-30 -6t-30 -3t-28 -1h-822q-16 0 -31 1t-31 5 q-14 2 -28 8t-26 12q-6 6 -15 13t-17 15t-15 17t-11 19q-4 8 -8 20t-4 24q-4 12 -5 25zM414 1112l330 324h350l158 -324h-318l-58 164l-162 -164h-300zM424 260q0 -6 2 -10l4 -12t4 -8q2 -4 7 -9l7 -7q12 -6 20 -6h232q4 0 10 1t10 5q8 2 14 6t10 8q6 2 11 8t9 10q4 6 7 12 l5 10l138 520q2 4 2 10v10q-2 4 -4 9t-6 9l-6 6t-8 6t-9 4t-7 2h-264q-6 0 -14 -6q-4 -4 -9 -8t-7 -6q-2 -4 -6 -9t-4 -7q-2 -4 -4 -10t-2 -8l-140 -518q-2 -6 -2 -12z" />
<glyph unicode="&#xf5;" horiz-adv-x="1446" d="M-69 159q-1 13 1 29v16t2 18q2 8 4 20t6 22l134 508q4 14 8 27t8 25t9 24t9 22q8 16 18 32t18 30q10 14 20 25t22 21q10 10 23 20t23 16l26 13t24 9q14 2 27 6t25 6t25 3t25 1h836q14 0 28 -1t26 -3t25 -6t23 -6q12 -2 21 -8t15 -12q8 -6 16 -16t14 -18t9 -21t7 -25 q2 -14 4 -30t0 -34q0 -10 -1 -22t-5 -24q-2 -12 -5 -27t-7 -29l-134 -498q-4 -14 -9 -30t-9 -28q-4 -14 -11 -27t-13 -25q-6 -14 -15 -27t-19 -25q-8 -12 -18 -22t-20 -18q-8 -8 -19 -16t-21 -14t-23 -13t-23 -9q-14 -4 -29 -8t-29 -6q-16 -2 -31 -3t-27 -1h-822 q-16 0 -32 1t-30 5q-14 2 -28 8t-26 12q-6 6 -16 13t-16 15q-8 8 -15 17t-11 19q-4 8 -8 20t-4 24q-4 12 -5 25zM426 260q0 -6 2 -10l4 -12t4 -8q2 -4 6 -9t8 -7q12 -6 20 -6h230q6 0 12 1t10 5q8 2 14 6t10 8q6 2 11 8t7 10q6 6 9 12l5 10l138 520q2 4 2 10v10q-2 4 -5 9 t-5 9l-6 6t-8 6t-9 4t-7 2h-264q-6 0 -14 -6q-4 -4 -9 -8t-7 -6q-2 -4 -6 -9t-4 -7q-2 -4 -4 -10t-4 -8l-138 -518q-2 -6 -2 -12zM426 1110q4 12 10 25t10 25q6 12 14 26t14 26q6 14 15 28t19 26t20 25t20 23q12 12 25 24t23 20q12 10 26 20t26 16q14 6 29 12t27 10 q14 4 29 7t29 3q44 0 82 -12q20 -6 39 -14t37 -14q20 -8 38 -16t34 -14t32 -11t32 -5q14 0 27 5t25 17t25 28t23 36h162q-4 -14 -10 -28t-12 -26q-4 -14 -11 -28t-11 -26q-6 -12 -14 -25t-14 -25t-15 -24t-19 -22q-8 -10 -18 -20t-22 -18q-24 -18 -50 -30q-14 -6 -29 -12 t-31 -8q-14 -4 -33 -6t-37 -2q-8 0 -19 1t-21 1q-10 2 -21 4t-21 4t-21 5t-21 7q-10 2 -19 8t-19 8q-8 2 -19 6t-19 8q-8 2 -17 6t-15 8q-8 2 -16 5t-14 5t-13 4t-13 2t-15 -2t-17 -4q-6 -4 -15 -11t-15 -13q-8 -8 -15 -17t-11 -17q-6 -8 -12 -17t-10 -17h-168z" />
<glyph unicode="&#xf6;" horiz-adv-x="1446" d="M-66 188q0 8 1 16t3 18q2 8 4 20t4 22l134 508q4 14 9 27t7 25q4 12 9 24t11 22q6 16 16 32t20 30t20 25t20 21l24 20t24 16t25 13t25 9t25 6t25 6q14 2 27 3t25 1h836q14 0 28 -1t24 -3q14 -2 26 -6t24 -6q10 -2 19 -8t17 -12t15 -16t15 -18q4 -8 8 -21t6 -25 q4 -14 6 -30t0 -34q-2 -10 -3 -22t-3 -24q-4 -12 -7 -27t-7 -29l-134 -498q-4 -14 -9 -30t-7 -28q-6 -14 -12 -27t-12 -25q-8 -14 -17 -27t-17 -25q-10 -12 -20 -22t-20 -18q-8 -8 -18 -16t-22 -14q-10 -6 -23 -13t-23 -9q-12 -4 -28 -8t-30 -6t-29 -3t-29 -1h-822 q-16 0 -31 1t-29 5q-14 2 -29 8t-27 12q-8 6 -16 13t-16 15q-6 8 -13 17t-13 19q-4 8 -7 20t-5 24t-3 25t-1 29zM398 1110l78 292h354l-78 -292h-354zM430 250q2 -6 5 -12t5 -8q2 -4 6 -9t8 -7q10 -6 20 -6h230q4 0 10 1t12 5q6 2 13 6t11 8q4 2 10 8t8 10q4 6 7 12l5 10 l140 520v10v10q-2 4 -4 9t-4 9q-2 2 -7 6t-9 6l-8 4t-8 2h-264q-6 0 -14 -6l-8 -8t-8 -6q-2 -4 -5 -9t-5 -7q0 -4 -3 -10t-3 -8l-140 -518v-12v-10zM868 1110l80 292h350l-80 -292h-350z" />
<glyph unicode="&#xf7;" horiz-adv-x="1194" d="M54 428l56 210h135h131h132h130h131h129h134h134l-56 -210h-264h-264h-264h-264zM288 0l74 278h360l-74 -278h-360zM498 782l74 278h360l-74 -278h-360z" />
<glyph unicode="&#xf8;" horiz-adv-x="1482" d="M-160 -234l252 244q-4 2 -9 4t-9 4t-9 4t-7 4q-10 4 -19 11t-17 15q-6 8 -13 18t-11 20q-2 8 -6 20t-6 24t-3 25t-1 29q2 8 2 16t2 18q2 8 4 20t6 22l134 508q4 14 8 27t8 25q2 12 8 24t10 22q8 16 17 32t19 30t20 25t20 21q12 10 25 20t23 16q12 6 25 13t25 9t25 6t27 6 q12 2 25 3t25 1h726l226 224h222l-248 -238h3h3q2 0 4 -1l2 -1q12 -2 21 -8t15 -12q8 -6 16 -16t14 -18q4 -8 8 -21t8 -25q2 -14 4 -30t0 -34q-2 -10 -2 -22t-4 -24t-6 -27t-6 -29l-134 -498q-4 -14 -9 -30t-9 -28q-6 -14 -12 -27t-12 -25q-6 -14 -15 -27t-19 -25t-19 -22 t-19 -18q-8 -8 -19 -16t-21 -14q-12 -6 -24 -13t-22 -9q-14 -4 -29 -8t-29 -6q-16 -2 -31 -3t-29 -1h-688l-238 -234h-228zM506 198q4 -2 9 -3t9 -1h262q4 0 8 1t8 3t8 6t6 8q2 2 6 7t4 9t3 9t3 9l96 356zM524 434l422 404q-2 2 -7 4t-11 2h-264q-4 0 -12 -6q-4 -4 -9 -8 t-7 -6q-2 -4 -6 -9t-4 -7q-2 -4 -4 -10t-4 -8z" />
<glyph unicode="&#xf9;" horiz-adv-x="1464" d="M-28 204v28t2 28q2 30 10 58l196 738h480l-212 -792q-2 -4 -2 -10t2 -10l4 -12t4 -8q4 -4 9 -7t9 -5q6 -4 11 -5t9 -1h218q4 0 10 1t12 3t12 5t10 7q4 2 9 7l9 9t7 10l5 10l214 796h486l-284 -1054h-1020q-18 0 -34 1t-30 5q-14 2 -27 8t-23 12t-21 14t-19 18 q-8 8 -15 20t-13 22q-4 10 -9 23t-9 25q-4 14 -7 28t-3 28zM598 1440h340l240 -328h-318z" />
<glyph unicode="&#xfa;" horiz-adv-x="1464" d="M-28 204v28t2 28q2 30 10 58l196 738h480l-212 -792q-2 -4 -2 -10t2 -10l4 -12t4 -8q4 -4 9 -7t9 -5q6 -4 11 -5t9 -1h218q4 0 10 1t12 3t12 5t10 7q4 2 9 7l9 9t7 10l5 10l214 796h486l-284 -1054h-1020q-18 0 -34 1t-30 5q-14 2 -27 8t-23 12t-21 14t-19 18 q-8 8 -15 20t-13 22q-4 10 -9 23t-9 25q-4 14 -7 28t-3 28zM510 1112l416 328h340l-438 -328h-318z" />
<glyph unicode="&#xfb;" horiz-adv-x="1464" d="M-28 204q0 14 1 28t3 28q2 30 8 58l196 738h480l-212 -792v-10v-10q2 -6 5 -12t5 -8q4 -4 8 -7t8 -5q6 -4 11 -5t9 -1h218q6 0 11 1t11 3t13 5t9 7q6 2 11 7l9 9t7 10t3 10l214 796h486l-282 -1054h-1022q-16 0 -32 1t-30 5q-14 2 -28 8t-24 12t-20 14t-18 18 q-10 8 -17 20t-13 22q-4 10 -9 23t-7 25q-4 14 -7 28t-5 28zM426 1112l328 324h352l156 -324h-316l-58 164l-162 -164h-300z" />
<glyph unicode="&#xfc;" horiz-adv-x="1464" d="M-24 204q2 14 2 28t2 28q2 30 10 58l194 738h480l-212 -792v-10t2 -10l4 -12t4 -8q4 -4 8 -7t8 -5q6 -4 11 -5t11 -1h218q4 0 10 1t10 3q6 2 13 5t11 7q4 2 9 7l9 9t7 10l5 10l212 796h486l-282 -1054h-1022q-16 0 -32 1t-30 5q-14 2 -27 8t-23 12q-12 6 -22 14t-18 18 q-8 8 -15 20t-15 22q-4 10 -9 23t-7 25q-4 14 -7 28t-5 28zM444 1110l78 292h352l-78 -292h-352zM916 1110l78 292h350l-78 -292h-350z" />
<glyph unicode="&#xfd;" horiz-adv-x="1442" d="M-94 -392l56 204h668q8 0 17 1t15 3q6 4 14 8t14 6l9 9t7 9q4 4 8 10t4 12l36 130h-522q-18 0 -35 2t-31 6q-14 2 -28 9t-26 15t-22 18t-18 20t-16 23t-14 27q-4 8 -8 20t-4 24q-2 12 -5 25t-1 25v26t2 28t5 28t7 30l194 730h484l-210 -784v-10v-10q0 -6 2 -12t4 -8 q2 -6 6 -11t10 -7q10 -6 20 -6h218q4 0 10 1t8 3q4 2 9 7l9 9q4 2 8 8t6 10q2 6 5 11t5 9l210 784h478l-320 -1194q-2 -8 -6 -20t-8 -22t-10 -22t-12 -22t-14 -21t-16 -21l-18 -18t-18 -20q-8 -8 -19 -17t-21 -15q-12 -8 -24 -15t-24 -13q-12 -4 -25 -9t-25 -7t-27 -4 t-31 -2h-990zM586 1112l418 328h340l-440 -328h-318z" />
<glyph unicode="&#xfe;" horiz-adv-x="1450" d="M-160 -388l486 1824h480l-100 -376h532q12 0 25 -2t25 -4q12 -4 24 -9t22 -11q22 -12 40 -30q10 -10 19 -20t15 -20t13 -21t11 -23q6 -12 11 -25t7 -25q4 -12 5 -26t-1 -26q0 -12 -2 -26t-4 -26l-128 -478q-4 -12 -9 -26t-13 -28q-6 -16 -17 -30t-21 -28q-6 -10 -16 -21 t-18 -19q-8 -10 -19 -21l-19 -19q-12 -10 -25 -20t-25 -18q-14 -10 -28 -18t-26 -14t-25 -11t-25 -7q-12 -4 -26 -6t-26 -2h-560l-104 -388h-478zM494 246l4 -12t6 -8q2 -4 7 -7t9 -5q4 -4 11 -5t13 -1h206q6 0 12 1t12 3q8 2 14 6t10 8q4 2 9 8t9 10q4 6 7 13t5 13l138 514 q2 6 2 12v10l-4 12t-4 10q-2 2 -7 6t-11 6q-10 6 -22 6h-206q-6 0 -13 -1t-11 -3q-8 -4 -14 -8t-10 -6q-6 -4 -11 -9t-9 -11q-10 -12 -12 -24l-138 -514q-2 -6 -2 -13v-11z" />
<glyph unicode="&#xff;" horiz-adv-x="1442" d="M-88 -392l54 204h670q8 0 16 1t16 3q6 4 14 8l12 6q4 4 10 9t8 9q4 4 7 10t5 12l34 130h-522q-18 0 -34 2t-30 6q-16 2 -29 9t-25 15t-22 18t-18 20q-10 10 -18 23t-12 27q-4 8 -8 20t-6 24t-4 25t-2 25v26t2 28t5 28t7 30l196 730h484l-210 -784q-2 -4 -2 -10v-10 q0 -6 2 -12t4 -8q2 -6 7 -11t9 -7q10 -6 20 -6h218q6 0 11 1t9 3t9 7l9 9q4 2 8 8t4 10q4 6 7 11t3 9l210 784h480l-320 -1194q-2 -8 -7 -20t-9 -22t-10 -22t-12 -22q-4 -10 -13 -21t-15 -21l-18 -18t-18 -20q-10 -8 -20 -17t-22 -15q-10 -8 -22 -15t-24 -13q-12 -4 -25 -9 t-27 -7q-12 -2 -27 -4t-29 -2h-990zM496 1110l78 292h352l-78 -292h-352zM968 1110l78 292h350l-78 -292h-350z" />
<glyph unicode="&#x152;" horiz-adv-x="2116" d="M-22 223q-2 17 0 35t5 38t9 42l198 748q6 20 14 41t16 39t19 37t21 33l24 32t24 28q14 14 29 27t29 23q12 8 26 18t26 16q14 8 29 15t27 13q18 6 36 11t36 9q18 2 36 5t34 3h1572l-64 -240h-532l-90 -334h514l-62 -234h-514l-104 -388h552l-64 -240h-1584q-16 0 -31 1 t-29 5q-16 2 -32 7t-30 11q-10 4 -23 11t-23 13q-10 8 -20 17t-20 19q-10 8 -18 21t-14 25q-4 14 -9 29t-9 31q-2 16 -4 33zM481 306q-1 -8 1 -14q0 -8 4 -15t6 -13l8 -12t8 -8q6 -4 12 -6t12 -2h302l258 962h-312q-6 0 -12 -3t-12 -5t-13 -8t-13 -12t-11 -13t-9 -13t-8 -14 t-6 -14l-212 -796q-2 -6 -3 -14z" />
<glyph unicode="&#x153;" horiz-adv-x="2096" d="M-17 177q-1 13 1 25q2 14 5 28t7 30l138 524q4 14 9 29t9 29q6 14 13 29t13 27l16 24t16 22q8 12 18 22l20 20q8 8 19 15t21 13t22 12t24 10q10 2 23 6t27 6q12 2 27 4t27 2h1438q14 0 28 -2t26 -4l24 -8t22 -8q12 -6 21 -13t17 -15t16 -18t14 -18q6 -10 11 -23t7 -27 q4 -14 7 -29t3 -31v-26t-4 -26q-2 -14 -5 -28t-7 -30l-88 -334h-714l-34 -124q-2 -6 -2 -12v-10q0 -6 2 -12t4 -10q4 -8 10 -15t14 -11q6 -6 16 -9t18 -3h584l-56 -208h-1648q-12 0 -23 1t-23 1q-10 2 -20 5t-18 7q-12 2 -21 9t-19 13q-8 6 -16 16t-14 18t-10 17t-8 19 q-2 10 -4 22t-2 24t-1 25zM466 244l4 -12t4 -8q2 -4 7 -7t9 -5q6 -2 11 -3t11 -1h154q6 0 12 1t12 3q4 2 11 5t11 7q4 2 9 8t9 10q2 6 5 12t5 12l140 520q0 6 1 13t1 11t-3 9t-5 9l-8 8t-8 6t-10 3t-10 1h-154q-6 0 -13 -1t-11 -3q-6 -2 -13 -6t-11 -8l-9 -9t-7 -9 q-4 -4 -8 -11t-6 -13l-138 -520q-2 -6 -2 -12v-10zM1304 618h260l44 166q2 4 2 10v12l-4 12t-6 10q-2 4 -6 8l-8 8q-8 6 -20 6h-142q-4 0 -10 -2l-12 -4q-6 -4 -13 -9t-11 -9l-10 -10t-8 -12q-4 -6 -7 -12t-5 -12z" />
<glyph unicode="&#x178;" horiz-adv-x="1590" d="M124 1436h590l196 -590l494 590h258l-756 -902l-144 -534h-500l150 556zM656 1498l78 290h346l-78 -290h-346zM1132 1498l78 290h346l-78 -290h-346z" />
<glyph unicode="&#x2c6;" horiz-adv-x="816" d="M-100 1192l326 322h350l158 -322h-316l-58 164l-164 -164h-296z" />
<glyph unicode="&#x2dc;" horiz-adv-x="810" d="M-74 1188q4 12 8 25t10 25q6 14 14 28t14 26q8 12 17 26t15 26q10 14 20 27t20 23q12 12 25 23t23 21q12 8 26 18t26 16q14 8 29 14t27 10q12 2 28 5t30 3q42 0 80 -12q20 -6 39 -13t39 -13l36 -16t34 -14t33 -11t33 -5q14 0 27 5t25 17t24 28t22 34h164q-4 -12 -11 -26 t-11 -26q-4 -14 -11 -28l-13 -26t-14 -25t-14 -25t-14 -24t-18 -22q-8 -10 -19 -21t-21 -19q-24 -18 -50 -30q-28 -12 -60 -18q-16 -4 -34 -6t-38 -2q-8 0 -18 1t-20 1q-10 2 -21 4t-21 4t-21 5t-21 7q-10 2 -19 7t-19 9q-8 2 -19 7t-19 7t-17 6t-15 8q-8 2 -16 5t-14 5 t-13 4t-13 2q-8 0 -16 -2t-16 -6q-6 -4 -15 -11t-15 -13q-8 -8 -16 -17t-14 -17q-4 -8 -10 -17t-8 -17h-164z" />
<glyph unicode="&#x2000;" horiz-adv-x="922" />
<glyph unicode="&#x2001;" horiz-adv-x="1844" />
<glyph unicode="&#x2002;" horiz-adv-x="922" />
<glyph unicode="&#x2003;" horiz-adv-x="1844" />
<glyph unicode="&#x2004;" horiz-adv-x="614" />
<glyph unicode="&#x2005;" horiz-adv-x="461" />
<glyph unicode="&#x2006;" horiz-adv-x="307" />
<glyph unicode="&#x2007;" horiz-adv-x="307" />
<glyph unicode="&#x2008;" horiz-adv-x="230" />
<glyph unicode="&#x2009;" horiz-adv-x="368" />
<glyph unicode="&#x200a;" horiz-adv-x="102" />
<glyph unicode="&#x2010;" horiz-adv-x="1194" d="M54 428l56 210h135h131h132h130h130h130h133h135l-56 -210h-264h-264h-264h-264z" />
<glyph unicode="&#x2011;" horiz-adv-x="1194" d="M54 428l56 210h135h131h132h130h130h130h133h135l-56 -210h-264h-264h-264h-264z" />
<glyph unicode="&#x2012;" horiz-adv-x="1194" d="M54 428l56 210h135h131h132h130h130h130h133h135l-56 -210h-264h-264h-264h-264z" />
<glyph unicode="&#x2013;" horiz-adv-x="1058" d="M-6 428l54 210h127h123h122h122h122h122h124h126l-56 -210h-248h-246h-248h-244z" />
<glyph unicode="&#x2014;" horiz-adv-x="2074" d="M-6 428l54 210h250h244h242h242h242h242h246h248l-56 -210h-489h-489h-488h-488z" />
<glyph unicode="&#x2018;" horiz-adv-x="632" d="M24 780l100 376l328 308h208l-226 -308h176l-100 -376h-486z" />
<glyph unicode="&#x2019;" horiz-adv-x="632" d="M60 780l226 310h-178l100 374h486l-100 -374l-328 -310h-206z" />
<glyph unicode="&#x201c;" horiz-adv-x="1254" d="M24 780l100 376l328 308h208l-226 -308h176l-100 -376h-486zM618 780l100 376l328 308h208l-226 -308h176l-100 -376h-486z" />
<glyph unicode="&#x201d;" horiz-adv-x="1254" d="M60 780l226 310h-178l100 374h486l-100 -374l-328 -310h-206zM654 780l226 310h-178l100 374h486l-100 -374l-328 -310h-206z" />
<glyph unicode="&#x2022;" horiz-adv-x="886" d="M168 652q2 34 10 66t24 65t36 63q22 30 48 57t52 49q30 22 61 41t65 31t69 19t67 7q34 0 65 -7t57 -19t49 -31t37 -41q18 -22 29 -48t15 -56t2 -64t-10 -66t-24 -65t-36 -63t-46 -58t-56 -50q-26 -22 -57 -40t-65 -30t-69 -19t-67 -7q-34 0 -65 7t-57 19t-49 30t-41 40 q-14 22 -26 49t-14 57q-6 30 -4 64z" />
<glyph unicode="&#x2026;" horiz-adv-x="2066" d="M50 0l100 376h488l-100 -376h-488zM740 0l100 376h488l-100 -376h-488zM1430 0l100 376h488l-100 -376h-488z" />
<glyph unicode="&#x202f;" horiz-adv-x="368" />
<glyph unicode="&#x205f;" horiz-adv-x="461" />
<glyph unicode="&#x2122;" horiz-adv-x="2088" d="M126 1294l38 144h754l-38 -144h-226l-194 -720h-302l194 720h-226zM788 572l232 866h390l20 -494l296 494h380l-232 -868h-298l186 692l-414 -690h-208l-36 682l-184 -682h-132z" />
<glyph unicode="&#x25fc;" horiz-adv-x="1060" d="M0 0v1060h1060v-1060h-1060z" />
</font>
</defs>
</svg>
